<?xml version="1.0" encoding="utf-8"?>
<!-- Generator: Adobe Illustrator 21.1.0, SVG Export Plug-In . SVG Version: 6.00 Build 0)  -->
<svg version="1.1" id="Layer_1" xmlns="http://www.w3.org/2000/svg" xmlns:xlink="http://www.w3.org/1999/xlink" x="0px" y="0px"
	 width="45.688px" height="50.357px" viewBox="0 0 45.688 50.357" enable-background="new 0 0 45.688 50.357" xml:space="preserve">
<g>
	<path fill="#014DA5" stroke="#FFFFFF" stroke-miterlimit="10" d="M3.658,21.259C3.466,10.732,11.901,2.037,22.498,1.844
		C33.093,1.65,41.839,10.033,42.031,20.56c0.192,10.53-18.69,27.525-18.69,27.525S3.85,31.789,3.658,21.259z"/>
</g>
<g>
	<g>
		<path fill="#FFFFFF" d="M14.922,22.994c0-5.245,4.252-9.496,9.496-9.496c2.317,0,4.439,0.83,6.087,2.209
			c-1.728-2.356-4.515-3.886-7.661-3.886c-5.244,0-9.496,4.252-9.496,9.496c0,2.931,1.329,5.552,3.417,7.294
			C15.608,27.038,14.922,25.097,14.922,22.994z"/>
		<path fill="#FFFFFF" d="M26.883,16.611c-5.244,0-9.496,4.252-9.496,9.496c0,1.194,0.224,2.334,0.627,3.386
			c1.415,0.838,3.066,1.32,4.829,1.32c5.244,0,9.496-4.252,9.496-9.496c0-1.192-0.222-2.332-0.623-3.384
			C30.301,17.094,28.649,16.611,26.883,16.611z"/>
	</g>
</g>
</svg>
