<?xml version="1.0" encoding="utf-8"?>
<!-- Generator: Adobe Illustrator 21.1.0, SVG Export Plug-In . SVG Version: 6.00 Build 0)  -->
<svg version="1.1" id="Layer_1" xmlns="http://www.w3.org/2000/svg" xmlns:xlink="http://www.w3.org/1999/xlink" x="0px" y="0px"
	 width="45.7px" height="50.4px" viewBox="0 0 45.7 50.4" style="enable-background:new 0 0 45.7 50.4;" xml:space="preserve">
<style type="text/css">
	.st0{fill:#2FC1B9;stroke:#FFFFFF;stroke-miterlimit:10;}
	.st1{fill:#FFFFFF;}
</style>
<g>
	<path class="st0" d="M3.7,21.3C3.5,10.7,11.9,2,22.5,1.8S41.8,10,42,20.6c0.2,10.5-18.7,27.5-18.7,27.5S3.8,31.8,3.7,21.3z"/>
</g>
<g>
	<path class="st1" d="M22.8,40.3c1.9-1.9,3-3.6,1-8.6h0.3c0.3,0,0.5-0.2,0.6-0.4c0.1-0.3,0-0.6-0.1-0.8l-0.5-0.5
		c3.3-1.3,7.6-6.4,7.6-11.5l0,0c0-5-4-9-9-9c-5,0-9,4-9,9c0,5.1,4.4,10.2,7.6,11.5L21,30.6c-0.2,0.2-0.3,0.5-0.1,0.8
		c0.1,0.3,0.4,0.4,0.6,0.4h0.9c2.1,4.9,1,6.1-0.5,7.6 M22.8,13.7c-2.7,0-4.8,2.2-4.8,4.8c0,0.4-0.3,0.7-0.7,0.7
		c-0.4,0-0.7-0.3-0.7-0.7c0-3.4,2.8-6.2,6.2-6.2c0.4,0,0.7,0.3,0.7,0.7C23.5,13.4,23.2,13.7,22.8,13.7L22.8,13.7z M22.8,13.7"/>
</g>
</svg>
