<?xml version="1.0" encoding="utf-8"?>
<!-- Generator: Adobe Illustrator 21.1.0, SVG Export Plug-In . SVG Version: 6.00 Build 0)  -->
<svg version="1.1" id="Layer_1" xmlns="http://www.w3.org/2000/svg" xmlns:xlink="http://www.w3.org/1999/xlink" x="0px" y="0px"
	 width="45.182px" height="44.6px" viewBox="0 0 45.182 44.6" enable-background="new 0 0 45.182 44.6" xml:space="preserve">
<g>
	<g>
		<g>
			<path fill="#FFFFFF" d="M3.004,22.989l2.627,15.359c4.507-0.812,32.599-5.758,34.593-5.845c0.119-0.026,1.124-0.262,1.124-1.907
				c0-1.709-1.669-1.997-1.735-2.012c-0.224-0.029-0.386-0.218-0.391-0.439c-0.008-0.221,0.146-0.42,0.364-0.458
				c0.073-0.018,1.689-0.38,1.689-1.964c0-1.583-1.606-1.95-1.678-1.969c-0.216-0.041-0.371-0.239-0.367-0.457
				c0.009-0.222,0.175-0.409,0.391-0.447c0.072-0.01,1.7-0.286,1.7-1.93c0-1.649-1.635-1.959-1.709-1.969
				c-0.216-0.04-0.378-0.231-0.382-0.447c-0.004-0.222,0.151-0.416,0.37-0.463c0.069-0.014,1.675-0.37,1.675-1.985
				c0-1.709-1.027-1.892-1.468-1.892c-0.088,0-0.174,0.008-0.256,0.018l-8.163,1.308c-0.023,0.005-0.047,0.005-0.073,0.005
				c-0.185,0-0.352-0.116-0.424-0.293c-0.081-0.203-0.008-0.434,0.17-0.556c0.015-0.008,1.758-1.261,1.758-5.775
				c0-3.565-1.615-5.162-3.217-5.162c-0.346,0-0.677,0.078-0.982,0.232c-0.337,0.166-0.35,0.504-0.297,1.509
				c0.095,2.095,0.27,5.608-4.927,10.809C18.853,20.799,6.198,22.534,3.004,22.989L3.004,22.989z"/>
		</g>
	</g>
	<g>
		<g>
			<path fill="#F1C14F" d="M39.613,28.584c-0.223-0.029-0.386-0.218-0.391-0.439c-0.008-0.221,0.147-0.42,0.364-0.458
				c0.073-0.018,1.689-0.38,1.689-1.964c0-1.583-1.606-1.95-1.678-1.969c-0.216-0.041-0.371-0.239-0.367-0.457
				c0.009-0.222,0.175-0.409,0.392-0.447c0.071-0.01,1.699-0.286,1.699-1.93c0-1.649-1.635-1.959-1.709-1.969
				c-0.216-0.04-0.378-0.231-0.382-0.447c-0.003-0.222,0.151-0.416,0.37-0.463c0.069-0.014,1.675-0.37,1.675-1.985
				c0-1.709-1.027-1.892-1.468-1.892c-0.088,0-0.174,0.008-0.256,0.018l-5.193,0.832c0.255,0.292,0.451,0.691,0.451,1.255
				c0,1.644-1.628,1.921-1.7,1.93c-0.216,0.038-0.382,0.224-0.391,0.447c-0.004,0.218,0.151,0.416,0.367,0.457
				c0.072,0.02,1.678,0.386,1.678,1.969c0,1.584-1.616,1.946-1.689,1.964c-0.218,0.037-0.372,0.236-0.364,0.457
				c0.004,0.222,0.167,0.411,0.391,0.439c0.066,0.015,1.735,0.303,1.735,2.012c0,1.645-1.005,1.881-1.124,1.907
				c-1.574,0.069-19.38,3.159-29.045,4.861l0.964,5.636c4.507-0.812,32.599-5.758,34.593-5.845c0.119-0.026,1.124-0.262,1.124-1.907
				C41.348,28.888,39.678,28.599,39.613,28.584z"/>
		</g>
	</g>
	<path fill="#404040" d="M43.136,25.724c0-0.984-0.33-1.769-0.821-2.368c0.512-0.596,0.867-1.399,0.867-2.435
		c0-1.038-0.366-1.851-0.886-2.455c0.505-0.62,0.84-1.428,0.84-2.41c0-2.592-1.671-3.753-3.329-3.753
		c-0.159,0-0.323,0.011-0.499,0.035l-0.026,0.003l-0.026,0.004l-5.197,0.833c0.359-1.069,0.62-2.477,0.62-4.307
		c0-4.851-2.55-7.022-5.078-7.022c-0.641,0-1.255,0.145-1.822,0.432c-1.451,0.714-1.373,2.19-1.315,3.268
		c0.086,1.91,0.216,4.79-4.385,9.395c-1.839,1.838-6.66,4.402-19.18,6.181l-0.159,0.023l-1.894,0.27l0.322,1.886l2.627,15.359
		l0.316,1.851l1.847-0.333c6.514-1.174,32.548-5.726,34.346-5.817l0.153-0.008l0.161-0.033c1.195-0.26,2.589-1.391,2.589-3.725
		c0-1.029-0.355-1.865-0.897-2.495C42.804,27.503,43.136,26.715,43.136,25.724z M40.224,32.503
		c-1.995,0.087-30.086,5.032-34.593,5.845L3.004,22.989c3.194-0.455,15.849-2.19,20.392-6.73c5.196-5.201,5.022-8.714,4.927-10.809
		c-0.053-1.005-0.04-1.343,0.297-1.509c0.305-0.154,0.636-0.232,0.982-0.232c1.602,0,3.217,1.597,3.217,5.162
		c0,4.514-1.744,5.767-1.758,5.775c-0.178,0.122-0.25,0.354-0.17,0.556c0.073,0.177,0.239,0.293,0.424,0.293
		c0.025,0,0.05,0,0.073-0.005l8.163-1.308c0.082-0.011,0.168-0.018,0.256-0.018c0.442,0,1.468,0.183,1.468,1.892
		c0,1.615-1.606,1.971-1.675,1.985c-0.219,0.048-0.374,0.242-0.37,0.463c0.005,0.216,0.167,0.407,0.382,0.447
		c0.074,0.01,1.709,0.32,1.709,1.969c0,1.644-1.628,1.92-1.7,1.93c-0.216,0.038-0.382,0.224-0.391,0.447
		c-0.004,0.218,0.151,0.416,0.367,0.457c0.072,0.019,1.678,0.386,1.678,1.969c0,1.584-1.616,1.946-1.689,1.964
		c-0.218,0.037-0.373,0.236-0.364,0.458c0.004,0.222,0.167,0.41,0.391,0.439c0.066,0.015,1.735,0.303,1.735,2.012
		C41.348,32.242,40.343,32.477,40.224,32.503z"/>
</g>
</svg>
