<?xml version="1.0" encoding="utf-8"?>
<!-- Generator: Adobe Illustrator 21.1.0, SVG Export Plug-In . SVG Version: 6.00 Build 0)  -->
<svg version="1.1" id="Layer_1" xmlns="http://www.w3.org/2000/svg" xmlns:xlink="http://www.w3.org/1999/xlink" x="0px" y="0px"
	 width="33.809px" height="44.6px" viewBox="0 0 33.809 44.6" enable-background="new 0 0 33.809 44.6" xml:space="preserve">
<g>
	<g>
		<g>
			<g>
				<g>
					<polygon fill="#FFFFFF" points="30.895,2.718 4.077,19.734 13.036,25.737 3.755,41.883 31.243,24.36 20.933,17.834 					"/>
				</g>
			</g>
		</g>
	</g>
	<g>
		<g>
			<g>
				<g>
					<g>
						<polygon fill="#F1C14F" points="31.243,24.36 20.933,17.834 26.883,8.806 9.66,19.734 18.619,25.737 12.568,36.265 						"/>
					</g>
				</g>
			</g>
		</g>
		<g>
			<g>
				<g>
					<g>
						<path fill="#404040" d="M4.206,42.591l-1.178-1.126l8.89-15.467l-9.376-6.284L30.445,2.01l1.151,1.171l-9.492,14.402
							l10.704,6.774L4.206,42.591z M5.613,19.752l8.541,5.724L6.186,39.338l23.492-14.976l-9.915-6.276l8.279-12.564L5.613,19.752z"
							/>
					</g>
				</g>
			</g>
		</g>
	</g>
</g>
</svg>
