<?xml version="1.0" encoding="utf-8"?>
<!-- Generator: Adobe Illustrator 21.1.0, SVG Export Plug-In . SVG Version: 6.00 Build 0)  -->
<svg version="1.1" id="Layer_1" xmlns="http://www.w3.org/2000/svg" xmlns:xlink="http://www.w3.org/1999/xlink" x="0px" y="0px"
	 width="45.688px" height="50.357px" viewBox="0 0 45.688 50.357" enable-background="new 0 0 45.688 50.357" xml:space="preserve">
<g>
	<path fill="#EC5671" stroke="#FFFFFF" stroke-miterlimit="10" d="M3.658,21.259C3.466,10.732,11.901,2.037,22.498,1.844
		C33.093,1.65,41.839,10.033,42.031,20.56c0.192,10.53-18.69,27.525-18.69,27.525S3.85,31.789,3.658,21.259z"/>
</g>
<g>
	<g>
		<path fill="#FFFFFF" d="M27.08,23.369c-0.729,0.115-1.414-0.384-1.528-1.113l-1.452-9.237c-0.115-0.729,0.384-1.414,1.113-1.528
			c0.729-0.115,1.414,0.384,1.528,1.113l1.452,9.237C28.307,22.57,27.809,23.254,27.08,23.369z"/>
	</g>
	<g>
		<path fill="#FFFFFF" d="M23.567,23.921c-0.729,0.115-1.414-0.384-1.528-1.113l-0.631-4.015c-0.115-0.729,0.384-1.414,1.113-1.528
			c0.729-0.115,1.414,0.384,1.528,1.113l0.631,4.015C24.795,23.122,24.296,23.806,23.567,23.921z"/>
	</g>
	<g>
		<path fill="#FFFFFF" d="M20.08,24.469c-0.729,0.115-1.414-0.384-1.528-1.113l-0.576-3.662c-0.115-0.729,0.384-1.414,1.113-1.528
			c0.729-0.115,1.414,0.384,1.528,1.113l0.576,3.662C21.308,23.67,20.81,24.354,20.08,24.469z"/>
	</g>
	<g>
		<path fill="#FFFFFF" d="M16.567,16.242l1.35,8.654l0.337,2.164l0.169,1.082l0.04,0.245l0.044,0.233
			c0.031,0.154,0.067,0.304,0.107,0.451c0.156,0.584,0.395,1.106,0.68,1.431c0.141,0.163,0.287,0.275,0.431,0.344
			c0.071,0.034,0.143,0.059,0.212,0.073c0.034,0.007,0.067,0.012,0.095,0.013c0.014,0.001,0.026,0.001,0.034,0.001
			c0.004,0,0.006,0,0.005,0l-0.006,0.001l-0.01,0.001l-0.041,0.006c0.718-0.113,1.391,0.377,1.504,1.095
			c0.113,0.718-0.378,1.391-1.095,1.504l-0.075,0.01l-0.044,0.004l-0.074,0.006c-0.046,0.003-0.089,0.004-0.131,0.005
			c-0.083,0.001-0.162-0.001-0.239-0.006c-0.154-0.01-0.302-0.03-0.447-0.06c-0.289-0.058-0.565-0.153-0.823-0.275
			c-0.517-0.245-0.949-0.603-1.286-0.991c-0.338-0.389-0.589-0.807-0.786-1.222c-0.197-0.416-0.34-0.832-0.453-1.244
			c-0.056-0.206-0.105-0.411-0.147-0.614c-0.021-0.102-0.04-0.203-0.058-0.305l-0.049-0.295L15.64,27.47l-0.343-2.163l-1.371-8.651
			c-0.116-0.729,0.382-1.414,1.111-1.53c0.729-0.116,1.414,0.382,1.53,1.111L16.567,16.242z"/>
	</g>
	<g>
		<path fill="#FFFFFF" d="M32.879,23.381c0.014-0.003,0.008,0.002,0.005,0.004l-0.016,0.012c-0.013,0.009-0.028,0.016-0.044,0.026
			c-0.031,0.019-0.066,0.038-0.102,0.057c-0.072,0.038-0.147,0.08-0.219,0.126c-0.145,0.092-0.283,0.198-0.408,0.313
			c-0.252,0.231-0.453,0.498-0.601,0.797c-0.148,0.299-0.242,0.633-0.284,0.997c-0.021,0.182-0.029,0.371-0.024,0.565
			c0.002,0.097,0.008,0.195,0.016,0.295c0.009,0.103,0.019,0.187,0.036,0.324c0.066,0.563,0.106,1.13,0.066,1.762
			c-0.022,0.315-0.065,0.645-0.156,0.996c-0.091,0.348-0.235,0.723-0.469,1.083c-0.231,0.36-0.561,0.689-0.914,0.918
			c-0.353,0.233-0.712,0.375-1.037,0.474c-0.653,0.191-1.195,0.242-1.664,0.318c-0.729,0.118-1.415-0.378-1.533-1.107
			c-0.118-0.729,0.378-1.415,1.107-1.533l0.004-0.001l0.007-0.001c0.522-0.083,0.984-0.146,1.295-0.246
			c0.155-0.048,0.265-0.101,0.331-0.147c0.067-0.047,0.099-0.082,0.14-0.145c0.04-0.062,0.085-0.16,0.12-0.298
			c0.035-0.136,0.06-0.306,0.072-0.492c0.024-0.373-0.002-0.813-0.055-1.247c-0.014-0.112-0.036-0.278-0.048-0.425
			c-0.013-0.151-0.022-0.304-0.026-0.458c-0.009-0.308,0.002-0.623,0.038-0.94c0.07-0.634,0.244-1.284,0.54-1.888
			c0.294-0.604,0.708-1.153,1.197-1.602c0.244-0.225,0.507-0.427,0.785-0.606c0.14-0.089,0.283-0.173,0.434-0.25
			c0.076-0.039,0.153-0.075,0.237-0.107c0.041-0.016,0.084-0.034,0.129-0.049l0.072-0.024l0.093-0.028
			c0.698-0.242,1.459,0.128,1.701,0.825C33.946,22.378,33.576,23.14,32.879,23.381z"/>
	</g>
</g>
</svg>
