<?xml version="1.0" encoding="utf-8"?>
<!-- Generator: Adobe Illustrator 21.1.0, SVG Export Plug-In . SVG Version: 6.00 Build 0)  -->
<svg version="1.1" id="Layer_1" xmlns="http://www.w3.org/2000/svg" xmlns:xlink="http://www.w3.org/1999/xlink" x="0px" y="0px"
	 width="45.688px" height="50.357px" viewBox="0 0 45.688 50.357" enable-background="new 0 0 45.688 50.357" xml:space="preserve">
<g>
	<path fill="#C54D33" stroke="#FFFFFF" stroke-miterlimit="10" d="M3.658,21.259C3.466,10.732,11.901,2.037,22.498,1.844
		C33.093,1.65,41.839,10.033,42.031,20.56c0.192,10.53-18.69,27.525-18.69,27.525S3.85,31.789,3.658,21.259z"/>
</g>
<path fill="#FFFFFF" d="M30.203,13.958c-0.994-0.992-2.29-1.487-3.592-1.488c-1.303,0.001-2.6,0.495-3.593,1.489l-7.535,7.534
	c-0.993,0.994-1.488,2.292-1.488,3.595c0,1.301,0.494,2.597,1.487,3.59c0.996,0.995,2.298,1.488,3.604,1.488
	c1.297,0,2.589-0.497,3.582-1.488l7.534-7.534c0.993-0.994,1.487-2.293,1.488-3.596C31.691,16.246,31.195,14.949,30.203,13.958z
	 M21.601,27.609c-0.697,0.697-1.61,1.043-2.528,1.044c-0.916-0.001-1.828-0.349-2.522-1.044c-0.697-0.697-1.044-1.608-1.044-2.523
	c0.001-0.917,0.348-1.829,1.045-2.526l3.801-3.801l5.049,5.049L21.601,27.609z"/>
</svg>
