<?xml version="1.0" encoding="utf-8"?>
<!-- Generator: Adobe Illustrator 21.1.0, SVG Export Plug-In . SVG Version: 6.00 Build 0)  -->
<svg version="1.1" id="Layer_1" xmlns="http://www.w3.org/2000/svg" xmlns:xlink="http://www.w3.org/1999/xlink" x="0px" y="0px"
	 width="45.688px" height="50.357px" viewBox="0 0 45.688 50.357" enable-background="new 0 0 45.688 50.357" xml:space="preserve">
<g>
	<path fill="#44861F" stroke="#FFFFFF" stroke-miterlimit="10" d="M3.658,21.259C3.466,10.732,11.901,2.037,22.498,1.844
		C33.093,1.65,41.839,10.033,42.031,20.56c0.192,10.53-18.69,27.525-18.69,27.525S3.85,31.789,3.658,21.259z"/>
</g>
<path fill="#FFFFFF" d="M17.21,28.772c0,0-4.223-5.477,1.303-10.977c0,0,3.62-3.851,10.235-4.589c0,0,3.216,9.842-2.781,14.515
	c0,0-2.259,2.326-6.181,2.258c0,0-0.977-4.837,5.527-11.177C25.311,18.801,18.474,20.97,17.21,28.772z"/>
</svg>
