<?xml version="1.0" encoding="utf-8"?>
<!-- Generator: Adobe Illustrator 21.1.0, SVG Export Plug-In . SVG Version: 6.00 Build 0)  -->
<svg version="1.1" id="Layer_1" xmlns="http://www.w3.org/2000/svg" xmlns:xlink="http://www.w3.org/1999/xlink" x="0px" y="0px"
	 width="45.7px" height="50.4px" viewBox="0 0 45.7 50.4" style="enable-background:new 0 0 45.7 50.4;" xml:space="preserve">
<style type="text/css">
	.st0{fill:#44861F;stroke:#FFFFFF;stroke-miterlimit:10;}
	.st1{fill:#FFFFFF;}
	.st2{fill:#660CF2;stroke:#FFFFFF;stroke-miterlimit:10;}
	.st3{fill:#BADB31;stroke:#FFFFFF;stroke-miterlimit:10;}
	.st4{fill:#EF732E;stroke:#FFFFFF;stroke-miterlimit:10;}
	.st5{fill:#EC5671;stroke:#FFFFFF;stroke-width:2.3129;stroke-miterlimit:10;}
</style>
<g>
	<path class="st5" d="M3.7,21.3C3.5,10.7,11.9,2,22.5,1.8C33.1,1.6,41.8,10,42,20.6c0.2,10.5-18.7,27.5-18.7,27.5S3.8,31.8,3.7,21.3
		z"/>
</g>
<g>
	<path class="st1" d="M23.8,9.8C23.8,9.8,23.7,9.8,23.8,9.8l0,8.1h8.6C32.1,13.4,28.3,9.8,23.8,9.8z"/>
	<path class="st1" d="M23.8,27.7c4.7,0,8.6-3.8,8.6-8.6c0,0,0-0.1,0-0.1H15.3l-2.8-0.7c-0.4-0.1-0.8,0.1-0.9,0.5l0,0
		c-0.1,0.4,0.1,0.8,0.5,0.9l3.2,0.8C15.9,24.5,19.5,27.7,23.8,27.7z"/>
	<path class="st1" d="M19.1,27.7c-1.8,0-3.3,1.5-3.3,3.3c0,1.8,1.5,3.3,3.3,3.3c1.8,0,3.3-1.5,3.3-3.3
		C22.4,29.1,20.9,27.7,19.1,27.7z M19.1,33c-1.1,0-2.1-0.9-2.1-2.1c0-1.1,0.9-2.1,2.1-2.1c1.1,0,2.1,0.9,2.1,2.1
		C21.2,32.1,20.3,33,19.1,33z"/>
	<path class="st1" d="M28.4,27.7c-1.8,0-3.3,1.5-3.3,3.3c0,1.8,1.5,3.3,3.3,3.3c1.8,0,3.3-1.5,3.3-3.3
		C31.6,29.1,30.2,27.7,28.4,27.7z M28.4,33c-1.1,0-2.1-0.9-2.1-2.1c0-1.1,0.9-2.1,2.1-2.1s2.1,0.9,2.1,2.1
		C30.4,32.1,29.5,33,28.4,33z"/>
	<circle class="st1" cx="19.1" cy="30.9" r="1.1"/>
	<circle class="st1" cx="28.4" cy="30.9" r="1.1"/>
</g>
</svg>
