<?xml version="1.0" encoding="utf-8"?>
<!-- Generator: Adobe Illustrator 21.1.0, SVG Export Plug-In . SVG Version: 6.00 Build 0)  -->
<svg version="1.1" id="Layer_1" xmlns="http://www.w3.org/2000/svg" xmlns:xlink="http://www.w3.org/1999/xlink" x="0px" y="0px"
	 width="572.146px" height="500.293px" viewBox="0 0 572.146 500.293" enable-background="new 0 0 572.146 500.293"
	 xml:space="preserve">
<g>
	<path fill="#FFFFFF" d="M103.703,232.137h355.015c0,0,11.901,156.19-175.39,156.19C96.034,388.327,103.703,232.137,103.703,232.137
		z"/>
</g>
<g>
	<path fill="#4CC0CC" d="M304.871,387.503c164.694-11.579,153.846-155.365,153.846-155.365H146.814
		C146.814,232.137,139.862,375.924,304.871,387.503z"/>
</g>
<g>
	<path fill="#FFFFFF" d="M322.218,57.127v136.491h136.499v-0.008C458.717,118.219,397.608,57.135,322.218,57.127z"/>
	<path fill="#404040" d="M313.66,202.173v-153.6h8.555c79.986,0.009,145.054,65.072,145.054,145.037v8.554L313.66,202.173z
		 M330.768,185.064h119.105c-4.226-63.732-55.359-114.86-119.105-119.1V185.064z"/>
</g>
<path fill="#CBBBA0" d="M161.361,383.076c0-26.758,21.697-48.438,48.455-48.438c26.749,0,48.446,21.68,48.446,48.438
	c0,26.766-21.697,48.456-48.446,48.456C183.058,431.532,161.361,409.843,161.361,383.076z"/>
<path fill="#404040" d="M209.811,440.087c-31.438,0-57.009-25.575-57.009-57.009c0-31.426,25.571-56.992,57.009-56.992
	c31.431,0,57.002,25.566,57.002,56.992C266.813,414.512,241.243,440.087,209.811,440.087z M209.811,343.194
	c-22,0-39.901,17.892-39.901,39.883c0,22.001,17.9,39.901,39.901,39.901c22.001,0,39.893-17.901,39.893-39.901
	C249.704,361.086,231.812,343.194,209.811,343.194z"/>
<path fill="#CBBBA0" d="M304.158,383.076c0-26.758,21.68-48.438,48.455-48.438c26.741,0,48.455,21.68,48.455,48.438
	c0,26.766-21.714,48.456-48.455,48.456C325.838,431.532,304.158,409.843,304.158,383.076z"/>
<path fill="#404040" d="M352.609,440.087c-31.438,0-57.009-25.575-57.009-57.009c0-31.426,25.571-56.992,57.009-56.992
	c31.439,0,57.01,25.566,57.01,56.992C409.619,414.512,384.048,440.087,352.609,440.087z M352.609,343.194
	c-22,0-39.901,17.892-39.901,39.883c0,22.001,17.9,39.901,39.901,39.901c22.001,0,39.901-17.901,39.901-39.901
	C392.51,361.086,374.61,343.194,352.609,343.194z"/>
<g>
	<path fill="#404040" d="M143.616,357.073c-31.254-34.394-48.472-78.761-48.472-124.935v-8.554h372.124v8.554
		c0,46.156-17.21,90.524-48.455,124.931l-12.664-11.501c26.446-29.12,41.821-66.078,43.791-104.876H112.472
		c1.97,38.811,17.353,75.769,43.808,104.871L143.616,357.073z"/>
</g>
<g>
	<path fill="#404040" d="M112.253,187.598H95.144c0-41.905-15.627-82.184-44.01-113.421l12.664-11.501
		C95.043,97.062,112.253,141.429,112.253,187.598z"/>
</g>
</svg>
