<?xml version="1.0" encoding="utf-8"?>
<!-- Generator: Adobe Illustrator 21.1.0, SVG Export Plug-In . SVG Version: 6.00 Build 0)  -->
<svg version="1.1" id="Layer_1" xmlns="http://www.w3.org/2000/svg" xmlns:xlink="http://www.w3.org/1999/xlink" x="0px" y="0px"
	 width="485.359px" height="580.282px" viewBox="0 0 485.359 580.282" enable-background="new 0 0 485.359 580.282"
	 xml:space="preserve">
<path fill="#404040" d="M245.779,546.623h130.787l-1.63-7.468l-32.078-147.576H132.287L98.584,546.623h134.894 M280.22,403.896
	l5.841,55.944h-40.282v-55.944H280.22z M233.478,403.896v55.944h-44.383l5.846-55.944H233.478z M233.478,472.153v62.149h-52.161
	l6.49-62.149H233.478z M245.779,472.153h41.57l6.485,62.149h-48.055V472.153z M306.214,534.302l-6.495-62.149h48.055l13.51,62.149
	H306.214z M345.098,459.84h-46.663l-5.846-55.944h40.351L345.098,459.84z M142.224,403.896h40.331l-5.851,55.944h-46.652
	L142.224,403.896z M113.857,534.302l13.52-62.149h48.044l-6.49,62.149H113.857z"/>
<g>
	<g>
		<g>
			<g id="XMLID_3_">
				<g>
					<path fill="#404040" d="M377.964,347.548l43.37,199.47h-10.33l-1.77-8.18h1.95l-20-92.03c1.19-0.71,1.98-2.01,1.98-3.5
						c0-2.1-1.59-3.84-3.63-4.06l-18.15-83.52h-62.78l-0.43-4.09h-131l-0.43,4.09h-62.78l-18.83,86.61l-20.97,96.5h39.19l-1.77,8.18
						h-47.56l43.36-199.47H377.964z"/>
					<path fill="#404040" d="M391.184,446.808l20,92.03l-21.19-91.55C390.424,447.198,390.824,447.028,391.184,446.808z"/>
					<path fill="#404040" d="M389.994,447.288l21.19,91.55h-1.95l-19.89-91.45C389.564,447.378,389.784,447.338,389.994,447.288z"/>
					<polygon fill="#54A847" points="411.004,547.018 411.184,547.828 111.404,547.828 111.584,547.018 					"/>
					<polygon fill="#404040" points="409.234,538.838 411.004,547.018 111.584,547.018 113.354,538.838 157.624,538.838 
						157.194,542.928 245.314,542.928 245.374,542.928 328.154,542.928 327.724,538.838 					"/>
					<path fill="#404040" d="M409.234,538.838h-81.51l-0.85-8.18h74.16l-18.1-83.26h6.14c0.09,0,0.18,0,0.27-0.01L409.234,538.838z"
						/>
					<polygon fill="#A48A7B" points="382.934,447.398 401.034,530.658 326.874,530.658 318.174,447.398 					"/>
					<path fill="#404040" d="M389.534,439.248c2.04,0.22,3.63,1.96,3.63,4.06c0,1.49-0.79,2.79-1.98,3.5L389.534,439.248z"/>
					<path fill="#404040" d="M389.534,439.248l1.65,7.56c-0.36,0.22-0.76,0.39-1.19,0.48l-0.92-3.98h-0.61l-0.89-4.09h1.5
						C389.234,439.218,389.384,439.228,389.534,439.248z"/>
					<path fill="#404040" d="M388.464,443.308l0.88,4.08c-0.09,0.01-0.18,0.01-0.27,0.01h-6.14l-0.89-4.09H388.464z"/>
					<path fill="#404040" d="M389.074,443.308l0.92,3.98c-0.21,0.05-0.43,0.09-0.65,0.1l-0.88-4.08H389.074z"/>
					<polygon fill="#404040" points="388.464,443.308 382.044,443.308 381.154,439.218 387.574,439.218 					"/>
					<polygon fill="#404040" points="375.774,384.958 387.574,439.218 381.154,439.218 369.364,384.958 					"/>
					<polygon fill="#FFFFFF" points="382.044,443.308 382.934,447.398 318.174,447.398 317.744,443.308 					"/>
					<polygon fill="#FFFFFF" points="381.154,439.218 382.044,443.308 317.744,443.308 317.324,439.218 					"/>
					<polygon fill="#CBBBA0" points="369.364,384.958 381.154,439.218 317.324,439.218 311.654,384.958 					"/>
					<path fill="#404040" d="M375.774,384.958h-6.41l-4.58-21.05h-55.33l-0.85-8.18h62.78l18.15,83.52
						c-0.15-0.02-0.3-0.03-0.46-0.03h-1.5L375.774,384.958z"/>
					<polygon fill="#FFFFFF" points="369.364,384.958 311.654,384.958 309.454,363.908 364.784,363.908 					"/>
					<path fill="#404040" d="M327.724,538.838l0.43,4.09h-82.78c2.24-0.04,4.03-1.86,4.03-4.09H327.724z"/>
					<path fill="#404040" d="M326.874,530.658l0.85,8.18h-78.32c0-0.02,0-0.04,0-0.06v-0.08l1.45-0.03
						c-0.03-1.45-0.42-2.78-1.1-3.92h69.32l-0.43-4.09H326.874z"/>
					<polygon fill="#FFFFFF" points="318.174,447.398 326.874,530.658 318.644,530.658 309.954,447.398 					"/>
					<path fill="#404040" d="M318.644,530.658l0.43,4.09h-69.32c-0.13-0.22-0.27-0.43-0.42-0.63l-0.05-3.46H318.644z"/>
					<polygon fill="#A48A7B" points="309.954,447.398 318.644,530.658 249.284,530.658 248.044,447.398 					"/>
					<polygon fill="#FFFFFF" points="317.744,443.308 318.174,447.398 309.954,447.398 309.534,443.308 					"/>
					<polygon fill="#FFFFFF" points="317.324,439.218 317.744,443.308 309.534,443.308 309.104,439.218 					"/>
					<polygon fill="#FFFFFF" points="311.654,384.958 317.324,439.218 309.104,439.218 303.434,384.958 					"/>
					<polygon fill="#FFFFFF" points="309.454,363.908 311.654,384.958 303.434,384.958 301.244,363.908 					"/>
					<polygon fill="#FFFFFF" points="309.534,443.308 309.954,447.398 248.044,447.398 247.974,443.308 					"/>
					<polygon fill="#FFFFFF" points="309.534,443.308 247.974,443.308 247.914,439.218 309.104,439.218 					"/>
					<path fill="#404040" d="M308.604,355.728l0.85,8.18h-8.21l-0.43-4.09h-54.73c-0.73-1.12-1.99-1.85-3.43-1.85v-2.24H308.604z"/>
					<polygon fill="#CBBBA0" points="303.434,384.958 309.104,439.218 247.914,439.218 247.104,384.958 					"/>
					<polygon fill="#404040" points="308.174,351.638 308.604,355.728 242.654,355.728 176.744,355.728 177.174,351.638 					"/>
					<polygon fill="#FFFFFF" points="301.244,363.908 303.434,384.958 247.104,384.958 246.794,363.908 					"/>
					<path fill="#404040" d="M300.814,359.818l0.43,4.09h-54.45l-0.03-1.91c-0.01-0.81-0.26-1.56-0.68-2.18H300.814z"/>
					<path fill="#404040" d="M250.854,538.668l-1.45,0.03l-0.06-3.95h0.41C250.434,535.888,250.824,537.218,250.854,538.668z"/>
					<path fill="#404040" d="M249.754,534.748h-0.41l-0.01-0.63C249.484,534.318,249.624,534.528,249.754,534.748z"/>
					<path fill="#404040" d="M249.404,538.698v0.08c0,0.02,0,0.04,0,0.06h-6.96L249.404,538.698z"/>
					<polygon fill="#404040" points="249.344,534.748 249.404,538.698 242.444,538.838 242.424,538.838 241.224,538.838 
						241.164,534.748 					"/>
					<path fill="#404040" d="M249.334,534.118l0.01,0.63h-8.18l-0.06-3.93c0.45-0.1,0.92-0.15,1.4-0.16
						C245.364,530.758,247.834,532.068,249.334,534.118z"/>
					<path fill="#404040" d="M249.284,530.658l0.05,3.46c-1.5-2.05-3.97-3.36-6.83-3.46H249.284z"/>
					<polygon fill="#FFFFFF" points="248.044,447.398 249.284,530.658 242.504,530.658 241.104,530.658 239.854,447.398 					"/>
					<polygon fill="#FFFFFF" points="247.974,443.308 248.044,447.398 239.854,447.398 239.794,443.308 					"/>
					<polygon fill="#FFFFFF" points="247.914,439.218 247.974,443.308 239.794,443.308 239.734,439.218 					"/>
					<polygon fill="#FFFFFF" points="247.104,384.958 247.914,439.218 239.734,439.218 238.924,384.958 					"/>
					<polygon fill="#FFFFFF" points="246.794,363.908 247.104,384.958 238.924,384.958 238.614,363.908 					"/>
					<path fill="#404040" d="M246.764,361.998l0.03,1.91h-8.18l-0.03-1.79c-0.01-0.85,0.23-1.64,0.66-2.3h6.84
						C246.504,360.438,246.754,361.188,246.764,361.998z"/>
					<path fill="#404040" d="M246.084,359.818h-6.84c0.72-1.1,1.96-1.83,3.37-1.85h0.04
						C244.094,357.968,245.354,358.698,246.084,359.818z"/>
					<path fill="#404040" d="M245.314,542.928h-88.12l0.43-4.09h4.11h72.76c0,0.06,0,0.1,0,0.16l6.73-0.14v0.04
						C241.254,541.138,243.084,542.928,245.314,542.928z"/>
					<path fill="#404040" d="M176.744,355.728h65.91v2.24h-0.04c-1.41,0.02-2.65,0.75-3.37,1.85h-54.71l-0.43,4.09h-8.21
						L176.744,355.728z"/>
					<path fill="#404040" d="M241.104,530.658h1.4c-0.48,0.01-0.95,0.06-1.4,0.16V530.658z"/>
					<path fill="#404040" d="M242.444,538.838h6.96c0,2.23-1.79,4.05-4.03,4.09h-0.06c-2.23,0-4.06-1.79-4.09-4.03v-0.04l1.2-0.02
						H242.444z"/>
					<polygon fill="#404040" points="242.424,538.838 241.224,538.858 241.224,538.838 					"/>
					<path fill="#404040" d="M241.224,538.838v0.02l-6.73,0.14c0-0.06,0-0.1,0-0.16H241.224z"/>
					<path fill="#404040" d="M241.164,534.748l0.06,4.09h-6.73c0-1.48,0.39-2.88,1.09-4.09H241.164z"/>
					<path fill="#404040" d="M241.104,530.818l0.06,3.93h-5.58C236.754,532.738,238.744,531.268,241.104,530.818z"/>
					<path fill="#404040" d="M241.104,530.658v0.16c-2.36,0.45-4.35,1.92-5.52,3.93h-69.31l0.43-4.09H241.104z"/>
					<polygon fill="#A48A7B" points="239.854,447.398 241.104,530.658 166.704,530.658 175.394,447.398 					"/>
					<polygon fill="#FFFFFF" points="239.794,443.308 239.854,447.398 175.394,447.398 175.814,443.308 					"/>
					<polygon fill="#FFFFFF" points="239.734,439.218 239.794,443.308 175.814,443.308 176.244,439.218 					"/>
					<polygon fill="#CBBBA0" points="238.924,384.958 239.734,439.218 176.244,439.218 181.914,384.958 					"/>
					<polygon fill="#FFFFFF" points="238.614,363.908 238.924,384.958 181.914,384.958 184.104,363.908 					"/>
					<path fill="#404040" d="M238.614,363.908h-54.51l0.43-4.09h54.71c-0.43,0.66-0.67,1.45-0.66,2.3L238.614,363.908z"/>
					<path fill="#404040" d="M166.274,534.748h69.31c-0.7,1.21-1.09,2.61-1.09,4.09h-72.76l0.57-8.18h4.4L166.274,534.748z"/>
					<polygon fill="#FFFFFF" points="184.104,363.908 181.914,384.958 173.694,384.958 175.894,363.908 					"/>
					<polygon fill="#FFFFFF" points="181.914,384.958 176.244,439.218 168.024,439.218 173.694,384.958 					"/>
					<polygon fill="#FFFFFF" points="175.894,363.908 173.694,384.958 146.814,384.958 135.014,439.218 104.184,439.218 
						120.554,363.908 					"/>
					<polygon fill="#FFFFFF" points="175.814,443.308 175.394,447.398 168.114,447.398 168.404,443.308 					"/>
					<polygon fill="#FFFFFF" points="175.394,447.398 166.704,530.658 162.304,530.658 168.114,447.398 					"/>
					<polygon fill="#CBBBA0" points="173.694,384.958 168.024,439.218 135.014,439.218 146.814,384.958 					"/>
					<polygon fill="#FFFFFF" points="168.404,443.308 168.114,447.398 167.174,447.398 168.024,439.218 176.244,439.218 
						175.814,443.308 					"/>
					<polygon fill="#FFFFFF" points="168.114,447.398 162.304,530.658 158.474,530.658 167.174,447.398 					"/>
					<polygon fill="#FFFFFF" points="168.024,439.218 167.174,447.398 133.234,447.398 135.014,439.218 					"/>
					<polygon fill="#CBBBA0" points="167.174,447.398 158.474,530.658 115.134,530.658 133.234,447.398 					"/>
					<polygon fill="#404040" points="162.304,530.658 161.734,538.838 157.624,538.838 158.474,530.658 					"/>
					<polygon fill="#404040" points="158.474,530.658 157.624,538.838 113.354,538.838 115.134,530.658 					"/>
					<polygon fill="#FFFFFF" points="135.014,439.218 133.234,447.398 102.414,447.398 104.184,439.218 					"/>
					<polygon fill="#FFFFFF" points="133.234,447.398 115.134,530.658 84.314,530.658 102.414,447.398 					"/>
					<path fill="#404040" d="M104.184,439.218l-1.77,8.18h-2.59c-2.26,0-4.09-1.83-4.09-4.09c0-0.28,0.03-0.56,0.08-0.82
						c0.38-1.87,2.03-3.27,4.01-3.27H104.184z"/>
					<path fill="#404040" d="M99.824,439.218c-1.98,0-3.63,1.4-4.01,3.27l-0.68-0.15l18.83-86.61h62.78l-0.85,8.18h-55.34
						l-16.37,75.31H99.824z"/>
					<path fill="#404040" d="M95.734,443.308c0,2.26,1.83,4.09,4.09,4.09h2.59l-18.1,83.26h30.82l-1.78,8.18h-39.19l20.97-96.5
						l0.68,0.15C95.764,442.748,95.734,443.028,95.734,443.308z"/>
				</g>
			</g>
		</g>
	</g>
</g>
<g>
	<g>
		<path fill="#FFFFFF" d="M104.66,235.477h276.026c0,0,9.253,121.438-136.367,121.438C98.698,356.916,104.66,235.477,104.66,235.477
			z"/>
	</g>
	<g>
		<path fill="#4CC0CC" d="M261.07,356.275c128.051-9.003,119.616-120.798,119.616-120.798H138.18
			C138.18,235.477,132.775,347.272,261.07,356.275z"/>
	</g>
	<g>
		<path fill="#FFFFFF" d="M274.557,99.405v106.122h106.129v-0.006C380.686,146.905,333.174,99.412,274.557,99.405z"/>
		<path fill="#404040" d="M267.903,212.179V92.755h6.651c62.19,0.007,112.78,50.594,112.78,112.767v6.65L267.903,212.179z
			 M281.205,198.877h92.605c-3.286-49.552-43.042-89.305-92.605-92.601V198.877z"/>
	</g>
	<path fill="#CBBBA0" d="M149.49,352.833c0-20.804,16.87-37.661,37.674-37.661c20.797,0,37.667,16.857,37.667,37.661
		c0,20.811-16.87,37.675-37.667,37.675C166.36,390.508,149.49,373.644,149.49,352.833z"/>
	<path fill="#404040" d="M187.16,397.159c-24.443,0-44.325-19.884-44.325-44.325c0-24.434,19.882-44.312,44.325-44.312
		c24.438,0,44.319,19.878,44.319,44.312C231.48,377.275,211.598,397.159,187.16,397.159z M187.16,321.824
		c-17.105,0-31.023,13.911-31.023,31.009c0,17.106,13.918,31.024,31.023,31.024c17.106,0,31.017-13.918,31.017-31.024
		C218.177,335.735,204.266,321.824,187.16,321.824z"/>
	<path fill="#CBBBA0" d="M260.516,352.833c0-20.804,16.857-37.661,37.674-37.661c20.791,0,37.674,16.857,37.674,37.661
		c0,20.811-16.883,37.675-37.674,37.675C277.372,390.508,260.516,373.644,260.516,352.833z"/>
	<path fill="#404040" d="M298.186,397.159c-24.443,0-44.325-19.884-44.325-44.325c0-24.434,19.882-44.312,44.325-44.312
		c24.444,0,44.326,19.878,44.326,44.312C342.512,377.275,322.63,397.159,298.186,397.159z M298.186,321.824
		c-17.105,0-31.023,13.911-31.023,31.009c0,17.106,13.918,31.024,31.023,31.024c17.106,0,31.024-13.918,31.024-31.024
		C329.21,335.735,315.292,321.824,298.186,321.824z"/>
	<g>
		<path fill="#404040" d="M135.693,332.616c-24.3-26.741-37.687-61.237-37.687-97.138v-6.651h289.329v6.651
			c0,35.887-13.381,70.383-37.674,97.134l-9.846-8.942c20.562-22.641,32.516-51.376,34.047-81.541H111.478
			c1.532,30.176,13.492,58.911,34.061,81.538L135.693,332.616z"/>
	</g>
</g>
</svg>
