<?xml version="1.0" encoding="utf-8"?>
<!-- Generator: Adobe Illustrator 21.1.0, SVG Export Plug-In . SVG Version: 6.00 Build 0)  -->
<svg version="1.1" id="Layer_1" xmlns="http://www.w3.org/2000/svg" xmlns:xlink="http://www.w3.org/1999/xlink" x="0px" y="0px"
	 width="485.359px" height="580.282px" viewBox="0 0 485.359 580.282" enable-background="new 0 0 485.359 580.282"
	 xml:space="preserve">
<path fill="#404040" d="M255.271,460.56h130.787l-1.63-7.468l-32.078-147.576H141.779L108.076,460.56H242.97 M289.712,317.833
	l5.841,55.944h-40.282v-55.944H289.712z M242.97,317.833v55.944h-44.383l5.846-55.944H242.97z M242.97,386.091v62.149h-52.161
	l6.49-62.149H242.97z M255.271,386.091h41.57l6.485,62.149h-48.055V386.091z M315.706,448.24l-6.495-62.149h48.055l13.51,62.149
	H315.706z M354.591,373.777h-46.663l-5.846-55.944h40.351L354.591,373.777z M151.716,317.833h40.331l-5.851,55.944h-46.652
	L151.716,317.833z M123.349,448.24l13.52-62.149h48.044l-6.49,62.149H123.349z"/>
<g>
	<g>
		<g>
			<g id="XMLID_2_">
				<g>
					<path fill="#404040" d="M387.456,261.486l43.37,199.47h-10.33l-1.77-8.18h1.95l-20-92.03c1.19-0.71,1.98-2.01,1.98-3.5
						c0-2.1-1.59-3.84-3.63-4.06l-18.15-83.52h-62.77l-0.43-4.09h-131.01l-0.43,4.09h-62.78l-18.83,86.61l-20.97,96.5h39.19
						l-1.77,8.18h-47.56l43.36-199.47H387.456z"/>
					<path fill="#404040" d="M400.676,360.746l20,92.03l-21.19-91.55C399.916,361.136,400.316,360.966,400.676,360.746z"/>
					<path fill="#404040" d="M399.486,361.226l21.19,91.55h-1.95l-19.89-91.45C399.056,361.316,399.276,361.276,399.486,361.226z"/>
					<polygon fill="#54A847" points="420.496,460.956 420.676,461.766 120.896,461.766 121.076,460.956 					"/>
					<polygon fill="#404040" points="418.726,452.776 420.496,460.956 121.076,460.956 122.846,452.776 167.116,452.776 
						166.686,456.866 254.806,456.866 254.876,456.866 337.646,456.866 337.216,452.776 					"/>
					<path fill="#404040" d="M418.726,452.776h-81.51l-0.85-8.18h74.16l-18.1-83.26h6.14c0.09,0,0.18,0,0.27-0.01L418.726,452.776z"
						/>
					<polygon fill="#A48A7B" points="392.426,361.336 410.526,444.596 336.366,444.596 327.676,361.336 					"/>
					<path fill="#404040" d="M399.026,353.186c2.04,0.22,3.63,1.96,3.63,4.06c0,1.49-0.79,2.79-1.98,3.5L399.026,353.186z"/>
					<path fill="#404040" d="M399.026,353.186l1.65,7.56c-0.36,0.22-0.76,0.39-1.19,0.48l-0.92-3.98h-0.61l-0.89-4.09h1.5
						C398.726,353.156,398.876,353.166,399.026,353.186z"/>
					<path fill="#404040" d="M397.956,357.246l0.88,4.08c-0.09,0.01-0.18,0.01-0.27,0.01h-6.14l-0.89-4.09H397.956z"/>
					<path fill="#404040" d="M398.566,357.246l0.92,3.98c-0.21,0.05-0.43,0.09-0.65,0.1l-0.88-4.08H398.566z"/>
					<polygon fill="#404040" points="397.956,357.246 391.536,357.246 390.646,353.156 397.066,353.156 					"/>
					<polygon fill="#404040" points="385.266,298.896 397.066,353.156 390.646,353.156 378.856,298.896 					"/>
					<polygon fill="#FFFFFF" points="391.536,357.246 392.426,361.336 327.676,361.336 327.246,357.246 					"/>
					<polygon fill="#FFFFFF" points="390.646,353.156 391.536,357.246 327.246,357.246 326.816,353.156 					"/>
					<polygon fill="#CBBBA0" points="378.856,298.896 390.646,353.156 326.816,353.156 321.156,298.896 					"/>
					<path fill="#404040" d="M380.876,269.666l18.15,83.52c-0.15-0.02-0.3-0.03-0.46-0.03h-1.5l-11.8-54.26h-6.41l-4.58-21.05
						h-55.32l-0.85-8.18H380.876z"/>
					<polygon fill="#FFFFFF" points="378.856,298.896 321.156,298.896 318.956,277.846 374.276,277.846 					"/>
					<path fill="#404040" d="M337.216,452.776l0.43,4.09h-82.77c2.23-0.04,4.02-1.86,4.02-4.09H337.216z"/>
					<path fill="#404040" d="M336.366,444.596l0.85,8.18h-78.32c0-0.02,0-0.04,0-0.06v-0.08l1.45-0.03
						c-0.03-1.45-0.42-2.78-1.1-3.92h69.33l-0.43-4.09H336.366z"/>
					<polygon fill="#FFFFFF" points="327.676,361.336 336.366,444.596 328.146,444.596 319.456,361.336 					"/>
					<path fill="#404040" d="M328.146,444.596l0.43,4.09h-69.33c-0.13-0.22-0.27-0.43-0.42-0.63l-0.05-3.46H328.146z"/>
					<polygon fill="#A48A7B" points="319.456,361.336 328.146,444.596 258.776,444.596 257.536,361.336 					"/>
					<polygon fill="#FFFFFF" points="327.246,357.246 327.676,361.336 319.456,361.336 319.026,357.246 					"/>
					<polygon fill="#FFFFFF" points="326.816,353.156 327.246,357.246 319.026,357.246 318.596,353.156 					"/>
					<polygon fill="#FFFFFF" points="321.156,298.896 326.816,353.156 318.596,353.156 312.936,298.896 					"/>
					<polygon fill="#FFFFFF" points="318.956,277.846 321.156,298.896 312.936,298.896 310.736,277.846 					"/>
					<polygon fill="#FFFFFF" points="319.026,357.246 319.456,361.336 257.536,361.336 257.466,357.246 					"/>
					<polygon fill="#FFFFFF" points="318.596,353.156 319.026,357.246 257.466,357.246 257.406,353.156 					"/>
					<path fill="#404040" d="M318.106,269.666l0.85,8.18h-8.22l-0.43-4.09h-54.73c-0.73-1.12-1.99-1.85-3.43-1.85v-2.24H318.106z"/>
					<polygon fill="#CBBBA0" points="312.936,298.896 318.596,353.156 257.406,353.156 256.596,298.896 					"/>
					<polygon fill="#404040" points="317.676,265.576 318.106,269.666 252.146,269.666 186.236,269.666 186.666,265.576 					"/>
					<polygon fill="#FFFFFF" points="310.736,277.846 312.936,298.896 256.596,298.896 256.286,277.846 					"/>
					<path fill="#404040" d="M310.306,273.756l0.43,4.09h-54.45l-0.03-1.91c-0.01-0.81-0.26-1.56-0.68-2.18H310.306z"/>
					<path fill="#404040" d="M260.346,452.606l-1.45,0.03l-0.06-3.95h0.41C259.926,449.826,260.316,451.156,260.346,452.606z"/>
					<path fill="#404040" d="M259.246,448.686h-0.41l-0.01-0.63C258.976,448.256,259.116,448.466,259.246,448.686z"/>
					<path fill="#404040" d="M258.896,452.636v0.08c0,0.02,0,0.04,0,0.06h-6.96L258.896,452.636z"/>
					<polygon fill="#404040" points="258.836,448.686 258.896,452.636 251.936,452.776 251.916,452.776 250.716,452.776 
						250.656,448.686 					"/>
					<path fill="#404040" d="M258.826,448.056l0.01,0.63h-8.18l-0.06-3.93c0.45-0.1,0.92-0.15,1.4-0.16
						C254.856,444.696,257.326,446.006,258.826,448.056z"/>
					<path fill="#404040" d="M258.776,444.596l0.05,3.46c-1.5-2.05-3.97-3.36-6.83-3.46H258.776z"/>
					<polygon fill="#FFFFFF" points="257.536,361.336 258.776,444.596 251.996,444.596 250.596,444.596 249.346,361.336 					"/>
					<polygon fill="#FFFFFF" points="257.466,357.246 257.536,361.336 249.346,361.336 249.286,357.246 					"/>
					<polygon fill="#FFFFFF" points="257.406,353.156 257.466,357.246 249.286,357.246 249.226,353.156 					"/>
					<polygon fill="#FFFFFF" points="256.596,298.896 257.406,353.156 249.226,353.156 248.416,298.896 					"/>
					<polygon fill="#FFFFFF" points="256.286,277.846 256.596,298.896 248.416,298.896 248.106,277.846 					"/>
					<path fill="#404040" d="M256.256,275.936l0.03,1.91h-8.18l-0.03-1.79c-0.01-0.85,0.23-1.64,0.66-2.3h6.84
						C255.996,274.376,256.246,275.126,256.256,275.936z"/>
					<path fill="#404040" d="M255.576,273.756h-6.84c0.72-1.1,1.96-1.83,3.37-1.85h0.04
						C253.586,271.906,254.846,272.636,255.576,273.756z"/>
					<path fill="#404040" d="M254.806,456.866h-88.12l0.43-4.09h4.11h72.76c0,0.06,0,0.1,0,0.16l6.73-0.14v0.04
						C250.746,455.076,252.576,456.866,254.806,456.866z"/>
					<path fill="#404040" d="M186.236,269.666h65.91v2.24h-0.04c-1.41,0.02-2.65,0.75-3.37,1.85h-54.71l-0.43,4.09h-8.21
						L186.236,269.666z"/>
					<path fill="#404040" d="M250.596,444.596h1.4c-0.48,0.01-0.95,0.06-1.4,0.16V444.596z"/>
					<path fill="#404040" d="M251.936,452.776h6.96c0,2.23-1.79,4.05-4.02,4.09h-0.07c-2.23,0-4.06-1.79-4.09-4.03v-0.04l1.2-0.02
						H251.936z"/>
					<polygon fill="#404040" points="251.916,452.776 250.716,452.796 250.716,452.776 					"/>
					<path fill="#404040" d="M250.716,452.776v0.02l-6.73,0.14c0-0.06,0-0.1,0-0.16H250.716z"/>
					<path fill="#404040" d="M250.656,448.686l0.06,4.09h-6.73c0-1.48,0.39-2.88,1.09-4.09H250.656z"/>
					<path fill="#404040" d="M250.596,444.756l0.06,3.93h-5.58C246.246,446.676,248.236,445.206,250.596,444.756z"/>
					<path fill="#404040" d="M250.596,444.596v0.16c-2.36,0.45-4.35,1.92-5.52,3.93h-69.31l0.43-4.09H250.596z"/>
					<polygon fill="#A48A7B" points="249.346,361.336 250.596,444.596 176.196,444.596 184.886,361.336 					"/>
					<polygon fill="#FFFFFF" points="249.286,357.246 249.346,361.336 184.886,361.336 185.306,357.246 					"/>
					<polygon fill="#FFFFFF" points="249.226,353.156 249.286,357.246 185.306,357.246 185.736,353.156 					"/>
					<polygon fill="#CBBBA0" points="248.416,298.896 249.226,353.156 185.736,353.156 191.406,298.896 					"/>
					<polygon fill="#FFFFFF" points="248.106,277.846 248.416,298.896 191.406,298.896 193.596,277.846 					"/>
					<path fill="#404040" d="M248.076,276.056l0.03,1.79h-54.51l0.43-4.09h54.71C248.306,274.416,248.066,275.206,248.076,276.056z"
						/>
					<path fill="#404040" d="M175.766,448.686h69.31c-0.7,1.21-1.09,2.61-1.09,4.09h-72.76l0.57-8.18h4.4L175.766,448.686z"/>
					<polygon fill="#FFFFFF" points="193.596,277.846 191.406,298.896 183.186,298.896 185.386,277.846 					"/>
					<polygon fill="#FFFFFF" points="191.406,298.896 185.736,353.156 177.516,353.156 183.186,298.896 					"/>
					<polygon fill="#FFFFFF" points="185.386,277.846 183.186,298.896 156.306,298.896 144.506,353.156 113.676,353.156 
						130.046,277.846 					"/>
					<polygon fill="#FFFFFF" points="185.306,357.246 184.886,361.336 177.606,361.336 177.896,357.246 					"/>
					<polygon fill="#FFFFFF" points="184.886,361.336 176.196,444.596 171.796,444.596 177.606,361.336 					"/>
					<polygon fill="#CBBBA0" points="183.186,298.896 177.516,353.156 144.506,353.156 156.306,298.896 					"/>
					<polygon fill="#FFFFFF" points="177.896,357.246 177.606,361.336 176.666,361.336 177.516,353.156 185.736,353.156 
						185.306,357.246 					"/>
					<polygon fill="#FFFFFF" points="177.606,361.336 171.796,444.596 167.966,444.596 176.666,361.336 					"/>
					<polygon fill="#FFFFFF" points="177.516,353.156 176.666,361.336 142.726,361.336 144.506,353.156 					"/>
					<polygon fill="#CBBBA0" points="176.666,361.336 167.966,444.596 124.626,444.596 142.726,361.336 					"/>
					<polygon fill="#404040" points="171.796,444.596 171.226,452.776 167.116,452.776 167.966,444.596 					"/>
					<polygon fill="#404040" points="167.966,444.596 167.116,452.776 122.846,452.776 124.626,444.596 					"/>
					<polygon fill="#FFFFFF" points="144.506,353.156 142.726,361.336 111.906,361.336 113.676,353.156 					"/>
					<polygon fill="#FFFFFF" points="142.726,361.336 124.626,444.596 93.806,444.596 111.906,361.336 					"/>
					<path fill="#404040" d="M113.676,353.156l-1.77,8.18h-2.59c-2.26,0-4.09-1.83-4.09-4.09c0-0.28,0.03-0.56,0.08-0.82
						c0.38-1.87,2.03-3.27,4.01-3.27H113.676z"/>
					<path fill="#404040" d="M104.626,356.276l18.83-86.61h62.78l-0.85,8.18h-55.34l-16.37,75.31h-4.36c-1.98,0-3.63,1.4-4.01,3.27
						L104.626,356.276z"/>
					<path fill="#404040" d="M105.226,357.246c0,2.26,1.83,4.09,4.09,4.09h2.59l-18.1,83.26h30.82l-1.78,8.18h-39.19l20.97-96.5
						l0.68,0.15C105.256,356.686,105.226,356.966,105.226,357.246z"/>
				</g>
			</g>
		</g>
	</g>
</g>
<g>
	<g>
		<path fill="#FFFFFF" d="M148.44,144.895c0-56.454,46.071-102.246,102.901-102.246c56.816,0,102.887,45.792,102.887,102.246
			c0,56.469-102.887,216.735-102.887,216.735S148.44,201.364,148.44,144.895z"/>
	</g>
	<g>
		<path fill="#C54D33" d="M195.793,152.168c0,46.194,51.856,135.43,74.612,178.588c29.083-48.017,83.666-139.875,83.666-182.008
			c0-8.191-14.005-50.93-15.838-58.564c-7.678-1.818-31.302-40.261-39.54-40.261C241.863,49.922,195.793,87.451,195.793,152.168z"/>
	</g>
	<g>
		<path fill="#F9F7E6" d="M206.311,144.895c0-24.69,20.167-44.729,45.03-44.729c24.849,0,45.016,20.039,45.016,44.729
			c0,24.705-20.167,44.73-45.016,44.73C226.478,189.625,206.311,169.6,206.311,144.895z"/>
	</g>
	<g>
		<g>
			<path fill="#404040" d="M251.339,375.688l-6.413-9.99c-4.25-6.622-104.097-162.798-104.097-220.802
				c0-60.548,49.578-109.806,110.51-109.806c60.925,0,110.496,49.258,110.496,109.806c0,58.005-99.832,214.18-104.083,220.802
				L251.339,375.688z M251.339,50.211c-52.543,0-95.292,42.477-95.292,94.685c0,45.66,72.955,166.527,95.292,202.462
				c22.337-35.943,95.277-156.817,95.277-202.462C346.617,92.688,303.875,50.211,251.339,50.211z"/>
		</g>
		<g>
			<path fill="#404040" d="M251.339,197.185c-29.024,0-52.64-23.457-52.64-52.29c0-28.832,23.616-52.289,52.64-52.289
				c29.017,0,52.625,23.458,52.625,52.289C303.964,173.728,280.357,197.185,251.339,197.185z M251.339,107.728
				c-20.635,0-37.422,16.672-37.422,37.168c0,20.497,16.786,37.168,37.422,37.168c20.628,0,37.406-16.671,37.406-37.168
				C288.746,124.4,271.967,107.728,251.339,107.728z"/>
		</g>
	</g>
</g>
</svg>
