<?xml version="1.0" encoding="utf-8"?>
<!-- Generator: Adobe Illustrator 21.1.0, SVG Export Plug-In . SVG Version: 6.00 Build 0)  -->
<svg version="1.1" id="Layer_1" xmlns="http://www.w3.org/2000/svg" xmlns:xlink="http://www.w3.org/1999/xlink" x="0px" y="0px"
	 width="485.359px" height="580.282px" viewBox="0 0 485.359 580.282" enable-background="new 0 0 485.359 580.282"
	 xml:space="preserve">
<path fill="#404040" d="M259.849,514.001h130.787l-1.63-7.468l-32.078-147.576H146.357l-33.703,155.045h134.894 M294.29,371.274
	l5.841,55.944h-40.282v-55.944H294.29z M247.548,371.274v55.944h-44.383l5.846-55.944H247.548z M247.548,439.531v62.149h-52.161
	l6.49-62.149H247.548z M259.849,439.531h41.57l6.485,62.149h-48.055V439.531z M320.284,501.68l-6.495-62.149h48.055l13.51,62.149
	H320.284z M359.169,427.217h-46.663l-5.846-55.944h40.351L359.169,427.217z M156.294,371.274h40.331l-5.851,55.944h-46.652
	L156.294,371.274z M127.927,501.68l13.52-62.149h48.044l-6.49,62.149H127.927z"/>
<g>
	<g>
		<g>
			<g id="XMLID_4_">
				<g>
					<path fill="#404040" d="M392.035,314.926l43.37,199.47h-10.33l-1.77-8.18h1.95l-20-92.03c1.19-0.71,1.98-2.01,1.98-3.5
						c0-2.1-1.59-3.84-3.63-4.06l-18.15-83.52h-62.78l-0.43-4.09h-131l-0.43,4.09h-62.78l-18.83,86.61l-20.97,96.5h39.19l-1.77,8.18
						h-47.56l43.36-199.47H392.035z"/>
					<path fill="#404040" d="M405.255,414.186l20,92.03l-21.19-91.55C404.495,414.576,404.895,414.406,405.255,414.186z"/>
					<path fill="#404040" d="M404.065,414.666l21.19,91.55h-1.95l-19.89-91.45C403.635,414.756,403.855,414.716,404.065,414.666z"/>
					<polygon fill="#54A847" points="425.075,514.396 425.255,515.206 125.475,515.206 125.655,514.396 					"/>
					<polygon fill="#404040" points="423.305,506.216 425.075,514.396 125.655,514.396 127.425,506.216 171.695,506.216 
						171.265,510.306 259.385,510.306 259.445,510.306 342.225,510.306 341.795,506.216 					"/>
					<path fill="#404040" d="M423.305,506.216h-81.51l-0.85-8.18h74.16l-18.1-83.26h6.14c0.09,0,0.18,0,0.27-0.01L423.305,506.216z"
						/>
					<polygon fill="#A48A7B" points="397.005,414.776 415.105,498.036 340.945,498.036 332.245,414.776 					"/>
					<path fill="#404040" d="M403.605,406.626c2.04,0.22,3.63,1.96,3.63,4.06c0,1.49-0.79,2.79-1.98,3.5L403.605,406.626z"/>
					<path fill="#404040" d="M403.605,406.626l1.65,7.56c-0.36,0.22-0.76,0.39-1.19,0.48l-0.92-3.98h-0.61l-0.89-4.09h1.5
						C403.305,406.596,403.455,406.606,403.605,406.626z"/>
					<path fill="#404040" d="M402.535,410.686l0.88,4.08c-0.09,0.01-0.18,0.01-0.27,0.01h-6.14l-0.89-4.09H402.535z"/>
					<path fill="#404040" d="M403.145,410.686l0.92,3.98c-0.21,0.05-0.43,0.09-0.65,0.1l-0.88-4.08H403.145z"/>
					<polygon fill="#404040" points="402.535,410.686 396.115,410.686 395.225,406.596 401.645,406.596 					"/>
					<polygon fill="#404040" points="389.845,352.336 401.645,406.596 395.225,406.596 383.435,352.336 					"/>
					<polygon fill="#FFFFFF" points="396.115,410.686 397.005,414.776 332.245,414.776 331.815,410.686 					"/>
					<polygon fill="#FFFFFF" points="395.225,406.596 396.115,410.686 331.815,410.686 331.395,406.596 					"/>
					<polygon fill="#CBBBA0" points="383.435,352.336 395.225,406.596 331.395,406.596 325.725,352.336 					"/>
					<path fill="#404040" d="M385.455,323.106l18.15,83.52c-0.15-0.02-0.3-0.03-0.46-0.03h-1.5l-11.8-54.26h-6.41l-4.58-21.05
						h-55.33l-0.85-8.18H385.455z"/>
					<polygon fill="#FFFFFF" points="383.435,352.336 325.725,352.336 323.525,331.286 378.855,331.286 					"/>
					<path fill="#404040" d="M341.795,506.216l0.43,4.09h-82.78c2.24-0.04,4.03-1.86,4.03-4.09H341.795z"/>
					<path fill="#404040" d="M340.945,498.036l0.85,8.18h-78.32c0-0.02,0-0.04,0-0.06v-0.08l1.45-0.03
						c-0.03-1.45-0.42-2.78-1.1-3.92h69.32l-0.43-4.09H340.945z"/>
					<polygon fill="#FFFFFF" points="332.245,414.776 340.945,498.036 332.715,498.036 324.025,414.776 					"/>
					<path fill="#404040" d="M332.715,498.036l0.43,4.09h-69.32c-0.13-0.22-0.27-0.43-0.42-0.63l-0.05-3.46H332.715z"/>
					<polygon fill="#A48A7B" points="324.025,414.776 332.715,498.036 263.355,498.036 262.115,414.776 					"/>
					<polygon fill="#FFFFFF" points="331.815,410.686 332.245,414.776 324.025,414.776 323.605,410.686 					"/>
					<polygon fill="#FFFFFF" points="331.395,406.596 331.815,410.686 323.605,410.686 323.175,406.596 					"/>
					<polygon fill="#FFFFFF" points="325.725,352.336 331.395,406.596 323.175,406.596 317.505,352.336 					"/>
					<polygon fill="#FFFFFF" points="323.525,331.286 325.725,352.336 317.505,352.336 315.315,331.286 					"/>
					<polygon fill="#FFFFFF" points="323.605,410.686 324.025,414.776 262.115,414.776 262.045,410.686 					"/>
					<polygon fill="#FFFFFF" points="323.605,410.686 262.045,410.686 261.985,406.596 323.175,406.596 					"/>
					<path fill="#404040" d="M322.675,323.106l0.85,8.18h-8.21l-0.43-4.09h-54.73c-0.73-1.12-1.99-1.85-3.43-1.85v-2.24H322.675z"/>
					<polygon fill="#CBBBA0" points="317.505,352.336 323.175,406.596 261.985,406.596 261.175,352.336 					"/>
					<polygon fill="#404040" points="322.245,319.016 322.675,323.106 256.725,323.106 190.815,323.106 191.245,319.016 					"/>
					<polygon fill="#FFFFFF" points="315.315,331.286 317.505,352.336 261.175,352.336 260.865,331.286 					"/>
					<path fill="#404040" d="M314.885,327.196l0.43,4.09h-54.45l-0.03-1.91c-0.01-0.81-0.26-1.56-0.68-2.18H314.885z"/>
					<path fill="#404040" d="M264.925,506.046l-1.45,0.03l-0.06-3.95h0.41C264.505,503.266,264.895,504.596,264.925,506.046z"/>
					<path fill="#404040" d="M263.825,502.126h-0.41l-0.01-0.63C263.555,501.696,263.695,501.906,263.825,502.126z"/>
					<path fill="#404040" d="M263.475,506.076v0.08c0,0.02,0,0.04,0,0.06h-6.96L263.475,506.076z"/>
					<polygon fill="#404040" points="263.415,502.126 263.475,506.076 256.515,506.216 256.495,506.216 255.295,506.216 
						255.235,502.126 					"/>
					<path fill="#404040" d="M263.405,501.496l0.01,0.63h-8.18l-0.06-3.93c0.45-0.1,0.92-0.15,1.4-0.16
						C259.435,498.136,261.905,499.446,263.405,501.496z"/>
					<path fill="#404040" d="M263.355,498.036l0.05,3.46c-1.5-2.05-3.97-3.36-6.83-3.46H263.355z"/>
					<polygon fill="#FFFFFF" points="262.115,414.776 263.355,498.036 256.575,498.036 255.175,498.036 253.925,414.776 					"/>
					<polygon fill="#FFFFFF" points="262.045,410.686 262.115,414.776 253.925,414.776 253.865,410.686 					"/>
					<polygon fill="#FFFFFF" points="261.985,406.596 262.045,410.686 253.865,410.686 253.805,406.596 					"/>
					<polygon fill="#FFFFFF" points="261.175,352.336 261.985,406.596 253.805,406.596 252.995,352.336 					"/>
					<polygon fill="#FFFFFF" points="260.865,331.286 261.175,352.336 252.995,352.336 252.685,331.286 					"/>
					<path fill="#404040" d="M260.835,329.376l0.03,1.91h-8.18l-0.03-1.79c-0.01-0.85,0.23-1.64,0.66-2.3h6.84
						C260.575,327.816,260.825,328.566,260.835,329.376z"/>
					<path fill="#404040" d="M260.155,327.196h-6.84c0.72-1.1,1.96-1.83,3.37-1.85h0.04
						C258.165,325.346,259.425,326.076,260.155,327.196z"/>
					<path fill="#404040" d="M259.385,510.306h-88.12l0.43-4.09h4.11h72.76c0,0.06,0,0.1,0,0.16l6.73-0.14v0.04
						C255.325,508.516,257.155,510.306,259.385,510.306z"/>
					<path fill="#404040" d="M190.815,323.106h65.91v2.24h-0.04c-1.41,0.02-2.65,0.75-3.37,1.85h-54.71l-0.43,4.09h-8.21
						L190.815,323.106z"/>
					<path fill="#404040" d="M255.175,498.036h1.4c-0.48,0.01-0.95,0.06-1.4,0.16V498.036z"/>
					<path fill="#404040" d="M256.515,506.216h6.96c0,2.23-1.79,4.05-4.03,4.09h-0.06c-2.23,0-4.06-1.79-4.09-4.03v-0.04l1.2-0.02
						H256.515z"/>
					<polygon fill="#404040" points="256.495,506.216 255.295,506.236 255.295,506.216 					"/>
					<path fill="#404040" d="M255.295,506.216v0.02l-6.73,0.14c0-0.06,0-0.1,0-0.16H255.295z"/>
					<path fill="#404040" d="M255.235,502.126l0.06,4.09h-6.73c0-1.48,0.39-2.88,1.09-4.09H255.235z"/>
					<path fill="#404040" d="M255.175,498.196l0.06,3.93h-5.58C250.825,500.116,252.815,498.646,255.175,498.196z"/>
					<path fill="#404040" d="M255.175,498.036v0.16c-2.36,0.45-4.35,1.92-5.52,3.93h-69.31l0.43-4.09H255.175z"/>
					<polygon fill="#A48A7B" points="253.925,414.776 255.175,498.036 180.775,498.036 189.465,414.776 					"/>
					<polygon fill="#FFFFFF" points="253.865,410.686 253.925,414.776 189.465,414.776 189.885,410.686 					"/>
					<polygon fill="#FFFFFF" points="253.805,406.596 253.865,410.686 189.885,410.686 190.315,406.596 					"/>
					<polygon fill="#CBBBA0" points="252.995,352.336 253.805,406.596 190.315,406.596 195.985,352.336 					"/>
					<polygon fill="#FFFFFF" points="252.685,331.286 252.995,352.336 195.985,352.336 198.175,331.286 					"/>
					<path fill="#404040" d="M252.655,329.496l0.03,1.79h-54.51l0.43-4.09h54.71C252.885,327.856,252.645,328.646,252.655,329.496z"
						/>
					<path fill="#404040" d="M180.345,502.126h69.31c-0.7,1.21-1.09,2.61-1.09,4.09h-72.76l0.57-8.18h4.4L180.345,502.126z"/>
					<polygon fill="#FFFFFF" points="198.175,331.286 195.985,352.336 187.765,352.336 189.965,331.286 					"/>
					<polygon fill="#FFFFFF" points="195.985,352.336 190.315,406.596 182.095,406.596 187.765,352.336 					"/>
					<polygon fill="#FFFFFF" points="189.965,331.286 187.765,352.336 160.885,352.336 149.085,406.596 118.255,406.596 
						134.625,331.286 					"/>
					<polygon fill="#FFFFFF" points="189.885,410.686 189.465,414.776 182.185,414.776 182.475,410.686 					"/>
					<polygon fill="#FFFFFF" points="189.465,414.776 180.775,498.036 176.375,498.036 182.185,414.776 					"/>
					<polygon fill="#CBBBA0" points="187.765,352.336 182.095,406.596 149.085,406.596 160.885,352.336 					"/>
					<polygon fill="#FFFFFF" points="182.475,410.686 182.185,414.776 181.245,414.776 182.095,406.596 190.315,406.596 
						189.885,410.686 					"/>
					<polygon fill="#FFFFFF" points="182.185,414.776 176.375,498.036 172.545,498.036 181.245,414.776 					"/>
					<polygon fill="#FFFFFF" points="182.095,406.596 181.245,414.776 147.305,414.776 149.085,406.596 					"/>
					<polygon fill="#CBBBA0" points="181.245,414.776 172.545,498.036 129.205,498.036 147.305,414.776 					"/>
					<polygon fill="#404040" points="176.375,498.036 175.805,506.216 171.695,506.216 172.545,498.036 					"/>
					<polygon fill="#404040" points="172.545,498.036 171.695,506.216 127.425,506.216 129.205,498.036 					"/>
					<polygon fill="#FFFFFF" points="149.085,406.596 147.305,414.776 116.485,414.776 118.255,406.596 					"/>
					<polygon fill="#FFFFFF" points="147.305,414.776 129.205,498.036 98.385,498.036 116.485,414.776 					"/>
					<path fill="#404040" d="M118.255,406.596l-1.77,8.18h-2.59c-2.26,0-4.09-1.83-4.09-4.09c0-0.28,0.03-0.56,0.08-0.82
						c0.38-1.87,2.03-3.27,4.01-3.27H118.255z"/>
					<path fill="#404040" d="M113.895,406.596c-1.98,0-3.63,1.4-4.01,3.27l-0.68-0.15l18.83-86.61h62.78l-0.85,8.18h-55.34
						l-16.37,75.31H113.895z"/>
					<path fill="#404040" d="M109.805,410.686c0,2.26,1.83,4.09,4.09,4.09h2.59l-18.1,83.26h30.82l-1.78,8.18h-39.19l20.97-96.5
						l0.68,0.15C109.835,410.126,109.805,410.406,109.805,410.686z"/>
				</g>
			</g>
		</g>
	</g>
</g>
<g>
	<g>
		<g>
			<g>
				<g>
					<path fill="#FFFFFF" d="M349.728,175.069c0-21.673-15.341-39.737-35.783-43.938c1.81-4.851,2.857-10.083,2.857-15.56
						c0-24.769-20.089-44.851-44.877-44.851c-14.092,0-26.66,6.526-34.889,16.701c-8.186-10.696-21.068-17.617-35.573-17.617
						c-24.787,0-44.853,20.084-44.853,44.846c0,5.708,1.107,11.14,3.044,16.162c-21.425,3.383-37.822,21.873-37.822,44.256
						c0,22.675,16.828,41.37,38.695,44.369c-1.907,4.995-3.009,10.382-3.009,16.036c0,24.772,20.084,44.858,44.848,44.858
						c14.257,0,26.932-6.674,35.141-17.033c8.244,9.843,20.592,16.112,34.418,16.112c24.787,0,44.877-20.071,44.877-44.848
						c0-5.48-1.047-10.712-2.857-15.56C334.387,214.811,349.728,196.726,349.728,175.069z"/>
				</g>
			</g>
		</g>
	</g>
	<g>
		<g>
			<g>
				<g>
					<path fill="#6BAD90" d="M245.023,344.406c0,16.851,21.299,30.501,47.607,30.501c26.279,0,47.589-13.65,47.589-30.501
						c0-16.864-21.31-30.519-47.589-30.519C266.322,313.887,245.023,327.542,245.023,344.406z"/>
				</g>
			</g>
		</g>
		<g>
			<g>
				<g>
					<path fill="#404040" d="M292.627,381.236c-30.246,0-53.931-16.181-53.931-36.83c0-20.663,23.685-36.851,53.931-36.851
						c30.238,0,53.926,16.188,53.926,36.851C346.553,365.056,322.866,381.236,292.627,381.236z M292.627,320.213
						c-22.375,0-41.276,11.08-41.276,24.193c0,13.1,18.9,24.172,41.276,24.172c22.37,0,41.265-11.072,41.265-24.172
						C333.892,331.293,314.997,320.213,292.627,320.213z"/>
				</g>
			</g>
		</g>
	</g>
	<g>
		<g>
			<g>
				<g>
					<rect x="231.378" y="265.072" fill="#404040" width="12.658" height="128.207"/>
				</g>
			</g>
		</g>
	</g>
	<g>
		<g>
			<g>
				<g>
					<g>
						<path fill="#FFB7A4" d="M342.016,173.232c1.81-4.848,2.854-10.08,2.854-15.557c0-0.997-0.089-1.97-0.153-2.951
							c-6.098-11.924-17.264-20.818-30.772-23.593c1.749-4.695,2.741-9.762,2.804-15.047c-5.18-2.083-10.827-3.259-16.754-3.259
							c-14.094,0-26.663,6.526-34.891,16.701c-8.184-10.696-21.065-17.619-35.567-17.619c-24.79,0-44.858,20.087-44.858,44.848
							c0,5.708,1.107,11.143,3.046,16.162c-21.197,3.349-37.411,21.494-37.761,43.551c3.362,1.355,6.853,2.462,10.564,2.97
							c-1.907,4.993-3.009,10.382-3.009,16.036c0,2.51,0.255,4.953,0.652,7.35c6.997,9.933,9.088,27.229,21.705,28.96
							c-1.846,4.838,5.803-0.182,5.737,5.282c5.18,2.089,10.83,3.267,16.754,3.267c14.257,0,26.932-6.674,35.141-17.033
							c8.244,9.843,20.592,16.112,34.418,16.112c24.787,0,44.877-20.071,44.877-44.848c0-5.48-1.047-10.712-2.857-15.56
							c20.284-4.161,35.502-22.004,35.741-43.433C347.227,174.582,344.67,173.78,342.016,173.232z"/>
					</g>
				</g>
			</g>
		</g>
	</g>
	<g>
		<g>
			<g>
				<g>
					<path fill="#FFFFFF" d="M194.595,175.069c0-22.751,18.44-41.191,41.178-41.191c22.751,0,41.189,18.44,41.189,41.191
						c0,22.746-18.438,41.194-41.189,41.194C213.035,216.263,194.595,197.815,194.595,175.069z"/>
				</g>
			</g>
		</g>
		<g>
			<g>
				<g>
					<path fill="#404040" d="M235.771,222.592c-26.195,0-47.505-21.318-47.505-47.523c0-26.2,21.31-47.518,47.505-47.518
						c26.2,0,47.518,21.318,47.518,47.518C283.289,201.274,261.971,222.592,235.771,222.592z M235.771,140.209
						c-19.219,0-34.849,15.639-34.849,34.86c0,19.224,15.631,34.865,34.849,34.865c19.224,0,34.86-15.641,34.86-34.865
						C270.631,155.847,254.995,140.209,235.771,140.209z"/>
				</g>
			</g>
		</g>
	</g>
	<g>
		<g>
			<g>
				<g>
					<path fill="#404040" d="M202.369,286.661c-28.22,0-51.182-22.962-51.182-51.187c0-3.783,0.434-7.555,1.292-11.288
						c-21.512-6.216-36.975-26.184-36.975-49.117c0-22.865,14.815-42.407,36.115-48.888c-0.892-3.788-1.342-7.642-1.342-11.53
						c0-28.215,22.962-51.174,51.193-51.174c13.531,0,26.195,5.229,35.699,14.557c9.412-8.744,21.736-13.645,34.76-13.645
						c28.231,0,51.201,22.959,51.201,51.18c0,3.764-0.432,7.508-1.276,11.201c20.176,7.108,34.205,26.434,34.205,48.299
						c0,21.87-14.036,41.197-34.205,48.294c0.844,3.693,1.276,7.439,1.276,11.201c0,28.217-22.97,51.177-51.201,51.177
						c-12.769,0-24.932-4.745-34.294-13.208C228.169,281.587,215.655,286.661,202.369,286.661z M201.469,76.134
						c-21.247,0-38.529,17.277-38.529,38.516c0,4.711,0.879,9.378,2.62,13.873l2.83,7.316l-7.742,1.223
						c-18.824,2.975-32.487,18.956-32.487,38.006c0,19.121,14.286,35.502,33.224,38.1l7.886,1.081l-2.83,7.442
						c-1.723,4.522-2.596,9.16-2.596,13.782c0,21.247,17.283,38.529,38.524,38.529c11.811,0,22.807-5.337,30.18-14.636l4.822-6.09
						l4.993,5.958c7.368,8.802,18.143,13.847,29.565,13.847c21.255,0,38.545-17.277,38.545-38.519c0-4.501-0.826-8.991-2.457-13.347
						l-2.588-6.926l7.247-1.486c17.803-3.654,30.725-19.521,30.725-37.735c0-18.209-12.921-34.081-30.732-37.74l-7.239-1.489
						l2.588-6.924c1.631-4.356,2.457-8.844,2.457-13.347c0-21.242-17.29-38.521-38.545-38.521c-11.669,0-22.591,5.235-29.972,14.357
						l-5.056,6.253l-4.89-6.387C224.652,81.65,213.514,76.134,201.469,76.134z"/>
				</g>
			</g>
		</g>
	</g>
</g>
</svg>
