<?xml version="1.0" encoding="utf-8"?>
<!-- Generator: Adobe Illustrator 21.1.0, SVG Export Plug-In . SVG Version: 6.00 Build 0)  -->
<svg version="1.1" id="Layer_1" xmlns="http://www.w3.org/2000/svg" xmlns:xlink="http://www.w3.org/1999/xlink" x="0px" y="0px"
	 width="485.359px" height="580.282px" viewBox="0 0 485.359 580.282" enable-background="new 0 0 485.359 580.282"
	 xml:space="preserve">
<g>
	<path fill="none" d="M121.705,264.3h302.378c0,0,10.137,133.032-149.386,133.032C115.174,397.332,121.705,264.3,121.705,264.3z"/>
</g>
<g>
	<path fill="#B1E6D2" d="M286.079,405.992c140.276-9.862,131.036-132.33,131.036-132.33H151.457
		C151.457,273.662,145.536,396.13,286.079,405.992z"/>
</g>
<path fill="#404040" d="M333.707,441.417c-26.777,0-48.557-21.783-48.557-48.557c0-26.767,21.78-48.542,48.557-48.542
	c26.778,0,48.558,21.775,48.558,48.542C382.265,419.635,360.485,441.417,333.707,441.417z M333.707,358.89
	c-18.738,0-33.985,15.239-33.985,33.97c0,18.739,15.246,33.985,33.985,33.985c18.739,0,33.985-15.246,33.985-33.985
	C367.692,374.129,352.446,358.89,333.707,358.89z"/>
<g>
	<path fill="#404040" d="M155.701,370.712c-26.62-29.294-41.285-67.084-41.285-106.412v-7.286h316.951v7.286
		c0,39.313-14.658,77.102-41.271,106.408l-10.786-9.795c22.525-24.802,35.62-56.281,37.298-89.326H129.174
		c1.678,33.056,14.78,64.535,37.313,89.323L155.701,370.712z"/>
</g>
<path fill="#404040" d="M300.533,238.777V107.951h7.286c68.127,0.007,123.547,55.424,123.547,123.534v7.285L300.533,238.777z
	 M315.105,224.205H416.55c-3.6-54.283-47.151-97.831-101.446-101.442V224.205z"/>
<path fill="#404040" d="M212.081,441.417c-26.777,0-48.557-21.783-48.557-48.557c0-26.767,21.78-48.542,48.557-48.542
	c26.771,0,48.55,21.775,48.55,48.542C260.632,419.635,238.853,441.417,212.081,441.417z M212.081,358.89
	c-18.738,0-33.985,15.239-33.985,33.97c0,18.739,15.246,33.985,33.985,33.985c18.739,0,33.978-15.246,33.978-33.985
	C246.06,374.129,230.82,358.89,212.081,358.89z"/>
<g>
	<g>
		<path fill="#404040" d="M226.088,202.491c-2.985,0.414-5.741-1.671-6.155-4.656l-5.24-37.809
			c-0.414-2.985,1.671-5.741,4.656-6.155c2.985-0.414,5.741,1.671,6.155,4.656l5.24,37.809
			C231.158,199.321,229.073,202.077,226.088,202.491z"/>
	</g>
	<g>
		<path fill="#404040" d="M211.71,204.484c-2.985,0.414-5.741-1.671-6.155-4.656l-2.278-16.433
			c-0.414-2.985,1.671-5.741,4.656-6.155c2.986-0.414,5.741,1.671,6.155,4.656l2.278,16.433
			C216.78,201.314,214.695,204.07,211.71,204.484z"/>
	</g>
	<g>
		<path fill="#404040" d="M197.44,206.462c-2.985,0.414-5.741-1.671-6.155-4.656l-2.078-14.991
			c-0.414-2.985,1.671-5.741,4.656-6.155c2.985-0.414,5.741,1.671,6.155,4.656l2.078,14.991
			C202.51,203.292,200.425,206.048,197.44,206.462z"/>
	</g>
	<g>
		<path fill="#404040" d="M183.714,172.621l4.866,35.421l1.216,8.856l0.608,4.427l0.145,1.004l0.163,0.954
			c0.117,0.63,0.25,1.248,0.401,1.847c0.593,2.395,1.529,4.543,2.668,5.891c0.564,0.675,1.153,1.145,1.731,1.435
			c0.289,0.146,0.581,0.25,0.86,0.312c0.139,0.031,0.274,0.052,0.389,0.062c0.056,0.005,0.108,0.007,0.14,0.007
			c0.016,0.001,0.026,0,0.022,0l-0.025,0.002l-0.039,0.003l-0.167,0.02c2.938-0.407,5.649,1.644,6.057,4.582
			c0.407,2.938-1.644,5.649-4.582,6.056l-0.306,0.035l-0.178,0.015l-0.304,0.018c-0.19,0.008-0.366,0.011-0.536,0.01
			c-0.34-0.002-0.661-0.018-0.976-0.043c-0.628-0.052-1.23-0.147-1.818-0.276c-1.176-0.26-2.296-0.665-3.339-1.185
			c-2.093-1.04-3.83-2.533-5.175-4.14c-1.351-1.613-2.343-3.336-3.116-5.045c-0.772-1.713-1.327-3.423-1.758-5.11
			c-0.215-0.844-0.397-1.683-0.554-2.518c-0.078-0.417-0.15-0.833-0.216-1.247l-0.178-1.207l-0.619-4.426l-1.238-8.853
			l-4.952-35.409c-0.417-2.985,1.664-5.743,4.649-6.16c2.985-0.417,5.743,1.664,6.16,4.649L183.714,172.621z"/>
	</g>
	<g>
		<path fill="#404040" d="M249.756,202.975c0.058-0.01,0.031,0.008,0.02,0.019l-0.066,0.046c-0.052,0.034-0.116,0.065-0.181,0.103
			c-0.13,0.075-0.274,0.15-0.422,0.226c-0.297,0.151-0.605,0.317-0.903,0.5c-0.598,0.365-1.169,0.786-1.689,1.246
			c-1.044,0.923-1.887,2-2.51,3.21c-0.625,1.21-1.036,2.566-1.234,4.048c-0.099,0.741-0.145,1.511-0.139,2.304
			c0.003,0.396,0.018,0.798,0.045,1.204c0.027,0.422,0.064,0.764,0.124,1.327c0.227,2.303,0.35,4.622,0.138,7.195
			c-0.113,1.283-0.313,2.628-0.712,4.051c-0.399,1.415-1.013,2.934-1.995,4.387c-0.969,1.452-2.342,2.769-3.798,3.68
			c-1.458,0.924-2.935,1.479-4.267,1.856c-2.678,0.732-4.894,0.899-6.815,1.174c-2.984,0.426-5.748-1.648-6.174-4.632
			c-0.426-2.983,1.647-5.747,4.631-6.173l0.017-0.002l0.027-0.004c2.137-0.298,4.025-0.525,5.305-0.906
			c0.638-0.185,1.09-0.394,1.363-0.576c0.277-0.187,0.411-0.327,0.583-0.58c0.168-0.25,0.357-0.649,0.511-1.206
			c0.155-0.554,0.27-1.245,0.332-2.004c0.128-1.52,0.052-3.318-0.133-5.094c-0.05-0.457-0.125-1.136-0.164-1.737
			c-0.043-0.617-0.068-1.241-0.074-1.871c-0.012-1.259,0.056-2.541,0.225-3.835c0.333-2.583,1.09-5.224,2.344-7.666
			c1.246-2.444,2.975-4.654,5.003-6.451c1.015-0.901,2.099-1.706,3.249-2.413c0.577-0.353,1.168-0.686,1.79-0.99
			c0.312-0.152,0.632-0.293,0.974-0.42c0.17-0.064,0.344-0.131,0.531-0.19l0.294-0.091l0.383-0.109
			c2.865-0.935,5.946,0.629,6.881,3.495C254.185,198.96,252.62,202.04,249.756,202.975z"/>
	</g>
</g>
<line fill="none" stroke="#404040" stroke-width="8.8509" stroke-linecap="round" stroke-miterlimit="10" x1="199.83" y1="237.568" x2="205.638" y2="259.292"/>
<line fill="none" stroke="#404040" stroke-width="8.8509" stroke-linecap="round" stroke-miterlimit="10" x1="224.148" y1="235.086" x2="227.229" y2="257.726"/>
</svg>
