<?xml version="1.0" encoding="utf-8"?>
<!-- Generator: Adobe Illustrator 21.1.0, SVG Export Plug-In . SVG Version: 6.00 Build 0)  -->
<svg version="1.1" id="Layer_1" xmlns="http://www.w3.org/2000/svg" xmlns:xlink="http://www.w3.org/1999/xlink" x="0px" y="0px"
	 width="727.586px" height="772.371px" viewBox="0 0 727.586 772.371" enable-background="new 0 0 727.586 772.371"
	 xml:space="preserve">
<g>
	<path fill="none" d="M119.01,241.237h441.357c0,0,14.796,194.176-218.046,194.176C109.477,435.413,119.01,241.237,119.01,241.237z"
		/>
</g>
<g>
	<path fill="#B1E6D2" d="M358.934,448.054c204.749-14.395,191.263-193.151,191.263-193.151h-387.76
		C162.436,254.903,153.794,433.659,358.934,448.054z"/>
</g>
<path fill="#404040" d="M428.452,499.761c-39.084,0-70.875-31.795-70.875-70.875c0-39.069,31.79-70.853,70.875-70.853
	c39.085,0,70.876,31.784,70.876,70.853C499.328,467.966,467.538,499.761,428.452,499.761z M428.452,379.303
	c-27.351,0-49.605,22.243-49.605,49.583c0,27.352,22.254,49.606,49.605,49.606c27.352,0,49.606-22.254,49.606-49.606
	C478.058,401.546,455.804,379.303,428.452,379.303z"/>
<g>
	<path fill="#404040" d="M168.631,396.558c-38.855-42.759-60.261-97.917-60.261-155.32v-10.635h462.628v10.635
		c0,57.382-21.396,112.54-60.24,155.315l-15.743-14.298c32.878-36.202,51.992-82.148,54.441-130.382H129.912
		c2.449,48.25,21.573,94.196,54.462,130.377L168.631,396.558z"/>
</g>
<g>
	<path fill="#404040" d="M75.949,608.937c4.453,3.878,6.681,9.042,6.681,15.492c0,0.999-0.155,2.649-0.461,4.953
		c-1.076,5.759-3.571,10.732-7.487,14.916c-3.917,4.187-8.985,7.124-15.205,8.812l13.131,31.561H47.613l-11.288-30.063h-2.304
		l-5.184,30.063H6.146l14.283-81.552h35.823C64.929,603.12,71.494,605.06,75.949,608.937z M36.785,639.404h11.058
		c6.295,0,9.981-2.841,11.058-8.524c0.076-0.461,0.115-1.112,0.115-1.958c0-4.452-2.649-6.681-7.948-6.681H39.896L36.785,639.404z"
		/>
	<path fill="#404040" d="M139.589,622.529c4.415,2.188,7.851,5.356,10.31,9.503c2.457,4.146,3.686,9.062,3.686,14.743
		c0,2.382-0.23,4.916-0.691,7.603c-1.152,6.375-3.571,11.903-7.257,16.587c-3.686,4.685-8.255,8.275-13.707,10.77
		c-5.453,2.496-11.328,3.744-17.624,3.744c-5.914,0-11.097-1.095-15.55-3.283c-4.455-2.188-7.93-5.374-10.424-9.561
		c-2.497-4.185-3.744-9.117-3.744-14.801c0-2.38,0.23-4.876,0.691-7.487c1.152-6.373,3.589-11.902,7.314-16.587
		c3.724-4.683,8.351-8.273,13.88-10.77c5.529-2.495,11.479-3.744,17.854-3.744C130.086,619.246,135.172,620.34,139.589,622.529z
		 M113.154,642.283c-2.458,2.304-4.109,5.645-4.953,10.021c-0.23,1.382-0.346,2.611-0.346,3.686c0,3.226,0.824,5.684,2.477,7.372
		c1.65,1.69,3.781,2.534,6.393,2.534c3.07,0,5.835-1.151,8.293-3.455c2.457-2.304,4.107-5.683,4.953-10.137
		c0.23-1.382,0.345-2.609,0.345-3.686c0-3.226-0.826-5.662-2.476-7.314c-1.652-1.65-3.783-2.477-6.393-2.477
		C118.375,638.828,115.611,639.979,113.154,642.283z"/>
	<path fill="#404040" d="M217.165,626.214c5.068,4.647,7.64,11.078,7.717,19.294h-23.958c-0.23-2.227-0.941-3.935-2.131-5.126
		c-1.191-1.189-2.899-1.785-5.126-1.785c-2.764,0-5.203,1.151-7.314,3.455c-2.113,2.304-3.591,5.722-4.435,10.252
		c-0.308,2.15-0.46,3.61-0.46,4.377c0,3.072,0.671,5.396,2.016,6.969c1.343,1.575,3.128,2.361,5.356,2.361
		c2.226,0,4.146-0.613,5.759-1.843c1.612-1.228,2.879-2.918,3.801-5.068h24.074c-2.995,8.218-7.737,14.668-14.225,19.352
		c-6.49,4.685-13.919,7.026-22.289,7.026c-8.448,0-15.187-2.399-20.215-7.199c-5.03-4.799-7.544-11.422-7.544-19.87
		c0-1.996,0.268-4.683,0.806-8.062c1.152-6.373,3.494-11.902,7.026-16.587c3.531-4.683,7.948-8.273,13.247-10.77
		c5.298-2.495,11.058-3.744,17.278-3.744C205.224,619.246,212.097,621.57,217.165,626.214z"/>
	<path fill="#404040" d="M274.642,651.728l19.006,32.943h-26.032l-12.785-27.414l-4.838,27.414h-22.576l14.974-85.237h22.577
		l-7.833,44.922l22-24.304h26.378L274.642,651.728z"/>
</g>
<g>
	<path fill="#404040" d="M467.143,625.466c4.914,4.146,7.718,9.638,8.409,16.471h-22.231c-0.077-2.304-0.979-4.031-2.707-5.183
		c-1.728-1.152-3.974-1.729-6.738-1.729c-1.997,0-3.57,0.328-4.723,0.979c-1.151,0.653-1.728,1.67-1.728,3.053
		c0,1.382,0.922,2.496,2.765,3.34c1.843,0.846,4.723,1.768,8.639,2.765c4.684,1.152,8.619,2.361,11.807,3.628
		c3.186,1.268,5.95,3.15,8.293,5.645c2.342,2.496,3.514,5.779,3.514,9.849c0,1.612-0.155,3.072-0.461,4.377
		c-0.999,4.992-3.936,9.042-8.812,12.152c-4.878,3.109-11.461,4.665-19.755,4.665c-8.908,0-16.088-1.977-21.539-5.933
		c-5.453-3.954-8.371-9.54-8.754-16.76h22.23c-0.23,2.304,0.594,4.052,2.477,5.241c1.881,1.191,4.357,1.785,7.43,1.785
		c3.686,0,5.797-1.227,6.335-3.686c0.306-1.688-0.461-2.995-2.304-3.916c-1.843-0.922-4.877-1.881-9.1-2.88
		c-4.763-1.228-8.659-2.419-11.691-3.571c-3.034-1.151-5.684-2.955-7.948-5.413c-2.266-2.457-3.397-5.72-3.397-9.791
		c0-0.844,0.153-2.264,0.461-4.262c0.844-4.991,3.686-9.08,8.523-12.268c4.838-3.186,11.403-4.78,19.696-4.78
		C455.124,619.246,462.228,621.319,467.143,625.466z"/>
	<path fill="#404040" d="M507.341,659.791c-0.077,0.385-0.115,0.921-0.115,1.612c0,1.382,0.384,2.381,1.152,2.995
		c0.767,0.615,2.033,0.921,3.801,0.921h6.22l-3.57,19.352h-9.215c-14.36,0-21.54-6.104-21.54-18.314c0-2.149,0.23-4.492,0.691-7.026
		l3.686-20.388h-8.408l3.34-18.891h8.409l2.765-15.665h22.576l-2.765,15.665h11.749l-3.341,18.891h-11.749L507.341,659.791z"/>
	<path fill="#404040" d="M569.714,622.932c4.185-2.304,8.466-3.456,12.844-3.456l-4.378,24.189h-6.45
		c-5.068,0-9.042,0.979-11.922,2.937c-2.879,1.959-4.742,5.356-5.586,10.194l-4.953,27.875h-22.576l11.288-64.619h22.691
		l-2.188,12.095C561.784,628.308,565.528,625.236,569.714,622.932z"/>
	<path fill="#404040" d="M635.368,622.529c4.415,2.188,7.851,5.356,10.31,9.503c2.456,4.146,3.686,9.062,3.686,14.743
		c0,2.382-0.23,4.916-0.691,7.603c-1.151,6.375-3.57,11.903-7.256,16.587c-3.687,4.685-8.256,8.275-13.707,10.77
		c-5.454,2.496-11.328,3.744-17.624,3.744c-5.914,0-11.098-1.095-15.55-3.283c-4.454-2.188-7.93-5.374-10.425-9.561
		c-2.496-4.185-3.743-9.117-3.743-14.801c0-2.38,0.23-4.876,0.691-7.487c1.151-6.373,3.589-11.902,7.314-16.587
		c3.724-4.683,8.351-8.273,13.88-10.77c5.528-2.495,11.479-3.744,17.854-3.744C625.866,619.246,630.952,620.34,635.368,622.529z
		 M608.934,642.283c-2.459,2.304-4.109,5.645-4.953,10.021c-0.23,1.382-0.346,2.611-0.346,3.686c0,3.226,0.824,5.684,2.477,7.372
		c1.65,1.69,3.781,2.534,6.393,2.534c3.07,0,5.835-1.151,8.294-3.455c2.456-2.304,4.106-5.683,4.952-10.137
		c0.23-1.382,0.346-2.609,0.346-3.686c0-3.226-0.826-5.662-2.477-7.314c-1.652-1.65-3.783-2.477-6.393-2.477
		C614.155,638.828,611.39,639.979,608.934,642.283z"/>
	<path fill="#404040" d="M689.908,599.434l-14.974,85.237h-22.691l14.974-85.237H689.908z"/>
	<path fill="#404040" d="M724.578,599.434l-14.974,85.237h-22.691l14.974-85.237H724.578z"/>
</g>
<path fill="#404040" d="M380.031,203.984V13.028h10.635c99.44,0.011,180.332,80.898,180.332,180.312v10.634L380.031,203.984z
	 M401.3,182.714h148.072C544.118,103.482,480.549,39.919,401.3,34.648V182.714z"/>
<path fill="#404040" d="M250.925,499.761c-39.084,0-70.875-31.795-70.875-70.875c0-39.069,31.79-70.853,70.875-70.853
	c39.076,0,70.865,31.784,70.865,70.853C321.79,467.966,290.001,499.761,250.925,499.761z M250.925,379.303
	c-27.351,0-49.605,22.243-49.605,49.583c0,27.352,22.254,49.606,49.605,49.606c27.352,0,49.595-22.254,49.595-49.606
	C300.52,401.546,278.277,379.303,250.925,379.303z"/>
<path fill="#1D1D1B" stroke="#404040" stroke-width="31.1771" stroke-miterlimit="10" d="M377.028,171.591"/>
<g>
	<g>
		<path fill="#404040" d="M271.37,151.02c-4.357,0.604-8.38-2.439-8.983-6.796l-7.649-55.186c-0.604-4.357,2.439-8.379,6.796-8.983
			c4.357-0.604,8.38,2.439,8.984,6.796l7.649,55.186C278.77,146.393,275.727,150.416,271.37,151.02z"/>
	</g>
	<g>
		<path fill="#404040" d="M250.383,153.929c-4.358,0.604-8.379-2.439-8.983-6.796l-3.324-23.985
			c-0.604-4.358,2.439-8.379,6.796-8.983c4.358-0.604,8.38,2.439,8.983,6.796l3.324,23.985
			C257.783,149.302,254.741,153.325,250.383,153.929z"/>
	</g>
	<g>
		<path fill="#404040" d="M229.554,156.816c-4.358,0.604-8.38-2.439-8.983-6.796l-3.033-21.881c-0.604-4.357,2.439-8.38,6.796-8.984
			c4.358-0.604,8.379,2.439,8.983,6.796l3.033,21.881C236.954,152.189,233.911,156.212,229.554,156.816z"/>
	</g>
	<g>
		<path fill="#404040" d="M209.519,107.421l7.102,51.701l1.776,12.926l0.888,6.462l0.211,1.466l0.237,1.393
			c0.171,0.919,0.365,1.821,0.586,2.696c0.865,3.495,2.232,6.631,3.894,8.598c0.823,0.986,1.682,1.671,2.527,2.094
			c0.422,0.212,0.848,0.365,1.255,0.455c0.202,0.045,0.4,0.076,0.567,0.09c0.082,0.007,0.157,0.01,0.204,0.011
			c0.023,0.001,0.038,0.001,0.033,0l-0.036,0.003l-0.057,0.005l-0.244,0.029c4.288-0.594,8.246,2.399,8.84,6.688
			c0.594,4.288-2.4,8.245-6.688,8.84l-0.447,0.052l-0.26,0.021l-0.443,0.026c-0.277,0.012-0.534,0.016-0.782,0.015
			c-0.497-0.003-0.965-0.026-1.425-0.063c-0.917-0.076-1.795-0.214-2.654-0.403c-1.717-0.379-3.351-0.971-4.874-1.73
			c-3.055-1.518-5.59-3.697-7.554-6.042c-1.972-2.354-3.42-4.869-4.548-7.363c-1.126-2.5-1.936-4.996-2.565-7.459
			c-0.314-1.232-0.579-2.457-0.809-3.675c-0.114-0.608-0.218-1.215-0.315-1.821l-0.26-1.762l-0.903-6.46l-1.807-12.922
			l-7.228-51.684c-0.609-4.357,2.429-8.382,6.785-8.992c4.357-0.609,8.382,2.428,8.992,6.785L209.519,107.421z"/>
	</g>
	<g>
		<path fill="#404040" d="M305.915,151.727c0.085-0.015,0.045,0.012,0.029,0.027l-0.096,0.067c-0.076,0.049-0.169,0.095-0.264,0.15
			c-0.189,0.11-0.4,0.22-0.616,0.329c-0.434,0.22-0.882,0.462-1.317,0.729c-0.873,0.533-1.706,1.147-2.466,1.819
			c-1.524,1.347-2.755,2.919-3.664,4.685c-0.912,1.766-1.513,3.745-1.8,5.909c-0.144,1.081-0.212,2.206-0.203,3.363
			c0.004,0.578,0.026,1.164,0.065,1.757c0.04,0.616,0.093,1.115,0.18,1.936c0.332,3.361,0.511,6.746,0.202,10.502
			c-0.164,1.873-0.457,3.836-1.04,5.914c-0.583,2.066-1.478,4.282-2.912,6.403c-1.415,2.119-3.418,4.042-5.543,5.372
			c-2.128,1.348-4.284,2.158-6.228,2.709c-3.909,1.068-7.144,1.313-9.948,1.714c-4.355,0.622-8.39-2.405-9.011-6.76
			c-0.622-4.355,2.404-8.389,6.759-9.011l0.026-0.004l0.039-0.005c3.119-0.435,5.875-0.766,7.744-1.323
			c0.931-0.27,1.59-0.575,1.99-0.84c0.404-0.273,0.6-0.477,0.851-0.846c0.245-0.365,0.522-0.947,0.746-1.76
			c0.226-0.808,0.394-1.818,0.485-2.926c0.186-2.218,0.076-4.843-0.195-7.436c-0.073-0.668-0.182-1.658-0.239-2.536
			c-0.063-0.901-0.099-1.811-0.108-2.73c-0.018-1.837,0.082-3.709,0.328-5.598c0.486-3.771,1.591-7.626,3.422-11.189
			c1.819-3.568,4.343-6.793,7.302-9.416c1.481-1.315,3.064-2.49,4.742-3.522c0.842-0.515,1.704-1.001,2.613-1.444
			c0.455-0.221,0.923-0.428,1.422-0.614c0.249-0.093,0.502-0.191,0.774-0.278l0.43-0.133l0.559-0.159
			c4.182-1.365,8.679,0.919,10.043,5.101C312.38,145.865,310.097,150.362,305.915,151.727z"/>
	</g>
</g>
<text transform="matrix(1 0 0 1 294.5029 688.714)" fill="#EC5671" font-family="'Poppins-ExtraBoldItalic'" font-size="115.1858px">&amp;</text>
<g>
	<path d="M135.619,768.992h-18.133v-22.795h10.42c5.865,0,7.713,2.9,7.713,8.637V768.992z M132.01,754.919
		c0-3.137-0.365-5.693-4.447-5.693h-6.424v16.822h10.871V754.919z"/>
	<path d="M150.138,746.175v11.816h-4.039v-11.816H150.138z"/>
	<path d="M161.8,765.876c2.17,0,2.836-0.752,2.836-3.695v-12.805h-3.094v-3.18h7.004v16.242c0,4.039-2.105,6.553-5.822,6.553h-3.459
		v-3.115H161.8z"/>
	<path d="M197.138,746.197v11c0,8.852-4.361,11.795-10.742,11.795h-6.338l-2.234-22.795h3.996l1.848,19.852h2.557
		c4.404,0,7.09-1.547,7.09-10.205v-6.467h-5.156v-3.18H197.138z"/>
	<path d="M208.606,765.876c2.17,0,2.836-0.752,2.836-3.695v-12.805h-3.094v-3.18h7.004v16.242c0,4.039-2.105,6.553-5.822,6.553
		h-3.459v-3.115H208.606z"/>
	<path d="M243.943,746.197v11c0,8.852-4.361,11.795-10.742,11.795h-6.338l-2.234-22.795h3.996l1.848,19.852h2.557
		c4.404,0,7.089-1.547,7.089-10.205v-6.467h-5.156v-3.18H243.943z"/>
	<path d="M272.493,746.197v11.537c0,8.787-3.824,11.258-10.205,11.258h-0.537v-2.943h0.322c4.383,0,6.467-1.053,6.467-8.916v-7.756
		h-14.975v-3.18H272.493z M254.403,754.64h3.609v19.938h-3.609V754.64z"/>
	<path d="M316.528,768.992h-18.133v-22.795h10.42c5.866,0,7.713,2.9,7.713,8.637V768.992z M312.918,754.919
		c0-3.137-0.365-5.693-4.448-5.693h-6.424v16.822h10.872V754.919z"/>
	<path d="M343.249,746.197v9.453c0,6.338-2.256,9.604-9.389,12.246c-2.557,0.967-9.582,3.48-9.582,3.48l-0.881-2.922l6.338-2.234
		l-4.018-20.023h4.104l3.48,18.842c3.566-1.375,6.102-2.686,6.102-8.186v-10.656H343.249z"/>
	<path d="M386.79,768.992h-18.133v-22.795h10.42c5.865,0,7.713,2.9,7.713,8.637V768.992z M383.181,754.919
		c0-3.137-0.365-5.693-4.447-5.693h-6.424v16.822h10.871V754.919z"/>
	<path d="M401.309,746.175v11.816h-4.039v-11.816H401.309z"/>
	<path d="M427.451,746.197l-8.357,22.795h-3.867l7.047-19.615h-11.666v-7.842h3.438v4.662H427.451z"/>
	<path d="M440.036,746.197v22.795h-4.039v-22.795H440.036z"/>
	<path d="M459.992,768.992v-19.615h-10.85v-3.18h17.23v3.18h-2.32v19.615H459.992z"/>
	<path d="M481.128,763.857c-0.645,3.094-2.557,5.135-6.295,5.135h-1.311v-3.438h1.676c4.039,0,5.285-2.406,5.285-5.586
		c0-0.559-0.043-1.139-0.107-1.719c-0.365-3.309-1.096-8.873-1.096-8.873h-4.383v-3.18h7.605l2.9,22.795h-3.48l-0.709-5.135H481.128
		z"/>
	<path d="M527.805,768.992h-18.133v-22.795h10.42c5.865,0,7.713,2.9,7.713,8.637V768.992z M524.196,754.919
		c0-3.137-0.365-5.693-4.447-5.693h-6.424v16.822h10.871V754.919z"/>
	<path d="M542.324,746.175v11.816h-4.039v-11.816H542.324z"/>
	<path d="M569.626,746.197v9.453c0,6.338-2.256,9.604-9.389,12.246c-2.557,0.967-9.582,3.48-9.582,3.48l-0.881-2.922l6.338-2.234
		l-4.018-20.023h4.104l3.48,18.842c3.566-1.375,6.102-2.686,6.102-8.186v-10.656H569.626z"/>
	<path d="M585.156,763.857c-0.645,3.094-2.557,5.135-6.295,5.135h-1.311v-3.438h1.676c4.039,0,5.285-2.406,5.285-5.586
		c0-0.559-0.043-1.139-0.107-1.719c-0.365-3.309-1.096-8.873-1.096-8.873h-4.383v-3.18h7.605l2.9,22.795h-3.48l-0.709-5.135H585.156
		z"/>
	<path d="M604.422,746.197c6.252,0,7.648,4.232,7.648,10.033v12.762h-3.996v-13.02c0-3.395-0.666-6.596-3.867-6.596h-6.875v-3.18
		H604.422z"/>
</g>
<line fill="none" stroke="#404040" stroke-width="12.9189" stroke-linecap="round" stroke-miterlimit="10" x1="233.042" y1="202.219" x2="241.52" y2="233.927"/>
<line fill="none" stroke="#404040" stroke-width="12.9189" stroke-linecap="round" stroke-miterlimit="10" x1="268.538" y1="198.596" x2="273.035" y2="231.642"/>
</svg>
